<svg xmlns="http://www.w3.org/2000/svg" viewBox="0 0 1581.24 184.65"><defs><style>.cls-3{fill:#f5e0b6}</style></defs><g id="Calque_2" data-name="Calque 2"><g id="Calque_1-2" data-name="Calque 1"><path fill="#509797" d="M0 .15h1581.24v184.5H0z"/><path fill="#dc963f" d="M1581.24.15v51c-18.53 1.82-39.58 4.39-61 8.06-7.6 1.3-14.74 2.65-21.41 4-9.86 2-18.72 4-26.61 5.77l-2.75.63-1.73.39c-3.31.76-6.29 1.45-9 2.09-6 1.44-10.62 2.61-14.15 3.57a112.52 112.52 0 0 0-11.74 3.68c-1.37.52-2.59 1-3.71 1.48-1.54.64-2.9 1.26-4.21 1.9-4.94 2.38-9.2 5.07-20.14 10.86-3.51 1.85-7.71 4-12.84 6.62-25.79 13-31.9 14.62-38.83 15.1-2.77.19-5 .15-7.48.09-3.65-.1-7.92-.25-15.45.18 0 0-10.73.61-21.85 2.35l-2.15.35c-2.2.37-4.25.77-6.17 1.2a103.1 103.1 0 0 0-14.69 4.39c-10.1 3.79-20 8.83-40.62 15.44-11 3.51-10.36 2.79-27.54 8l-2.93.9c-6.38 2-10.78 3.37-14.54 4.6-6.24 2-10.77 3.63-19.71 6.45-11.44 3.61-18.16 5.48-25.59 7.51-6.89 1.87-14.38 3.89-26.81 7.56l-1 .3c-7.79 2.32-18.86 5.67-32.27 10h-32.31c-2.27-1.1-4.42-2.47-7.47-4.18-2.18-1.22-4.83-2.62-8.31-4.2-1.71-.78-3.77-1.7-6.15-2.68a98.43 98.43 0 0 0-24.59-6.76c-2.3-.3-4.13-.45-5.66-.52-5.67-.24-7.14.69-12.95-.82-.4-.1-.78-.21-1.15-.32-9.74-2.87-10.64-7.5-23.39-14.52a99.3 99.3 0 0 0-34.44-11.02 88.46 88.46 0 0 0-17.52-1.08 68.16 68.16 0 0 0-7.6.73 32.64 32.64 0 0 1-8 .62c-7.76-.57-13.53-4.57-17.64-7.84-.84-.66-1.6-1.29-2.31-1.86-15.32-12.36-33.14-19.78-68.49-35.33a208 208 0 0 0-20.5-8.09l-2.89-.91c-14.74-4.48-22.18-4.37-30.41-5.62A68.28 68.28 0 0 1 747 76c-15.58-6.13-16.87-11.37-31.28-14-2-.37-5.83-1-23.19-.54-5.71.15-10.26.34-14 .54h-.06c-8.54.48-12.68 1-16.5 1.3h-.08a63.42 63.42 0 0 1-9.21-.06 121.78 121.78 0 0 1-23.13-3.91c-2.31-.61-4.54-1.25-6.71-1.91-2.66-.81-5.22-1.64-7.73-2.45l-1.44-.47c-3.77-1.25-6-2.17-12.44-4.84-2.94-1.22-6.76-2.8-12-4.93L585.09 43c-3-1.19-7.09-2.82-12-4.7-5.65-2.16-12.37-4.65-19.71-7.23-7-2.48-14.63-5-22.37-7.44a78.49 78.49 0 0 0-15.6-3.53c-.8-.1-1.61-.18-2.45-.24-10.47-.78-15 1.27-22.93 1.35-1 0-1.9 0-2.82-.07-7.83-.47-14.3-3.25-26-8.29-3.1-1.34-6.23-2.68-9.38-4.13A126 126 0 0 1 435.85.15h1028l-.16-.15.66.15Z"/><path d="M556.42.15a7.53 7.53 0 0 1-1 .91c-3.49 2.76-8.07 1.76-9.19 1.47a12.29 12.29 0 0 1-2-.7 13.91 13.91 0 0 1-2.72-1.68ZM584.87 4C574.1.69 572-.4 569.8 1.06c-2.69 1.75-4 6.09-2.58 8.09 1.82 2.55 6.57-.94 12.87 1.47 6 2.29 6.76 7.39 10.29 7S597 12 595.9 8.78c-.67-1.89-2.5-2.17-11.03-4.78ZM640.75 35.62c-6.45 5.21-16.44.81-19.12-.37s-6-4.21-12.86-10.3c-7-6.22-8.16-8-7.73-9.55.92-3.15 8.59-3.56 8.46-4.42s-6.09.44-7.35-1.83c-.89-1.6.77-4.5 2.57-6.25a10.54 10.54 0 0 1 5.52-2.75h11.6l2 .17c2.34.21 13.81 1.21 14 3.68.11 1.72-5.4 2.53-5.52 5.15-.06 1.59 1.93 2.42 4.78 4.78 2.61 2.14 7.25 6 8.09 10.66.69 3.97-1.33 8.51-4.44 11.03ZM650 .15a1.64 1.64 0 0 1 0 .54c-.45 2.22-4.69 4-7.72 2.57a6.33 6.33 0 0 1-2.95-3.11ZM650.31 6.21c-2.12.43-5.65 1.87-5.88 4-.31 2.88 5.39 5.31 5.88 5.51 5.92 2.47 14 1.33 14.7-1.47s-5.42-7.1-10.66-8.08a10.05 10.05 0 0 0-4.04.04ZM714.28 32.06c-8.47 3.23-16.26-2.67-16.92-3.18-1.07-.85-7-5.65-7.1-13.73A17.46 17.46 0 0 1 694.78 3a13.17 13.17 0 0 1 2.83-2.31c.33-.2.66-.38 1-.54h16.84c4.34 1.4 7.63 3.67 7.67 5.93a2.62 2.62 0 0 1-.5 1.54c-1 1.47-3 2.54-2.69 4.34.19 1.1 1.1 1.6 2.1 2.13a5.5 5.5 0 0 1 2.55 2c2.08 3.8-2.58 13.01-10.3 15.97ZM680 24.46c-1.19 1-.51 3.69.49 7.6 1.2 4.68 2.1 8.2 4.9 9.32 3.88 1.53 10-2.1 10.54-5.89.81-6.15-13.07-13.49-15.93-11.03ZM667.22 26.92c-.53.13.79 4.2-1 5.39-2 1.34-5.26-2.79-8.09-1.72s-4.68 7.44-2.21 11.52c3 5 11.69 5.23 14.95 1.72 4.77-5.11-2.71-17.15-3.65-16.91ZM676 6.08c-2 .84-1.54 9.1.74 9.81 1.37.42 3.94-1.73 4.16-4.42.34-3.47-3.46-5.97-4.9-5.39ZM745.07.15c-2.79 1.35-5.85 1.79-8.28.72a6.59 6.59 0 0 1-1.24-.72ZM767.23.15c-2 2.13-4.14 3.34-5.81 2.84a4.5 4.5 0 0 1-2.57-2.84ZM752.51 23.67c-2-1.21-8.18-5-16-3.49-.88.16-10.64 2.1-11.77 7.72-.84 4.18 3.6 8 10.66 14 8.92 7.58 14.92 12.69 21 10.66 4.31-1.46 7-6 7.72-9.75 2-10.44-10.26-18.3-11.61-19.14ZM731.92 50.87c-2.38-.31-5.43.62-6.06 2.39-1.11 3.09 5 9.12 8.08 7.91 2.32-.91 3.64-6.07 1.47-8.64a5.34 5.34 0 0 0-3.49-1.66ZM746.63 54.36c3.27-1.88 7.28 0 9.19 2.58s2.29 6.79.18 9c-2.86 3-9.63 1.86-11.76-2.39-1.44-2.87-.85-7.32 2.39-9.19ZM774.57 23.85c6.86 5.62 17 2.66 21.69 1.29 4.16-1.22 8.5-2.48 9.19-5.52 1-4.54-7-9.39-7.54-9.74-8.79-5.23-18.38-1.72-20.59-.92-3 1.11-6.47 2.37-7.35 5.33-1.07 3.6 2.25 7.64 4.6 9.56ZM781.18 36.9c-3.94 2.11-6.85 7-5.69 10.66.49 1.59 3 3.27 7.9 6.62 3 2.07 3.48 2.11 3.86 2 4-.9 6.5-17.15.92-20.22-2.6-1.4-6.12.48-6.99.94ZM793.4.15c-1.78 1.5-5 2.19-6.7 2.38-.94.1-6.78.76-10-2.38ZM745.89 12.09c8.08 2.58 17.25 1.05 17.56-1 .26-1.81-6.27-4.11-6.62-4.23-3.05-1.06-4.84-.92-10-1.29-8.72-.62-11.15-1.55-11.49-.73-.54 1.26 4.58 5.34 10.55 7.25ZM813.17 5.84c1-1.3 3.44.69 13.42 1.65a20.89 20.89 0 0 1 6.8 1.51c2 .86 5 2.11 5.33 4.41s-2 4.52-3.68 5.52c-4.8 2.92-11 .12-12.68-.74-6.36-3.25-10.67-10.34-9.19-12.35ZM803.24 29.55c-3.23.21-12 .79-12.68 4-.11.49 0 .8 2.94 5.89 2.22 3.85 2.5 4.3 3.12 5a11.67 11.67 0 0 0 5.52 3.49c3 .73 4.06-.85 11.21-2.94 5.33-1.56 6.6-1.22 7.72-2.76 1.78-2.43 1.13-6.72-.92-9.37-3.25-4.22-9.66-3.79-16.91-3.31ZM811.51 48.12c-5.07-.79-12 1.76-13.42 6.43-1 3.32 1 6.6 1.48 7.35 2.1 3.38 5.4 4.55 11.76 6.8a67.64 67.64 0 0 0 11 2.76c6.78 1.31 10.18 1.93 11 .55 1.29-2.12-4.62-6.52-3.13-9.56 1.19-2.41 5.79-1.4 6.44-3.49.38-1.23-1-2.29-4.78-6.43-5.17-5.67-5.75-7.19-7.54-7.17-2.67 0-3.12 3.38-6.8 4-2.36.48-3.14-.8-6.01-1.24ZM788.54 58.41c-2.17-.43-3 3.35-8.46 6.43-4.56 2.58-8 2.23-8.09 3.49-.09 1.42 4.15 3 7.72 3.5 2.57.33 9.16 1.18 11.58-2.94 2.23-3.8-.15-9.96-2.75-10.48ZM839.64 47.56c.71 2.12 3.75 3.32 6.25 3.13a7.15 7.15 0 0 0 6.43-6.44c.21-2.42-.86-5.49-2.94-6.24-3.94-1.44-11.1 5.53-9.74 9.55ZM840.56 63.56a5 5 0 0 0-.19 5.51c1.21 2.09 4.06 3.53 6.44 2.39 2.58-1.23 3.3-4.88 1.83-7.17-1.74-2.72-6.2-2.95-8.08-.73ZM835.59 93.52c2.62-.85 11.42-3.7 11.58-8.46.14-4-6-7.16-6.8-7.53-3.42-1.72-5-1-13.42-1.84-8.83-.88-9.56-1.92-13.05-1.11-3.91.91-9.76 3.78-10.11 7.72-.47 5.32 9.29 10 14.71 11.59a28.66 28.66 0 0 0 17.09-.37ZM887.43 20.54c-1.19 5.44-3.35 15.35-9.38 16.73-4.24 1-8.12-2.81-15.62-10.11-8.43-8.22-12.89-12.55-11.76-17.65S858.44-.06 863.9.32c5 .35 6.3 4.48 11 4.23 3.66-.19 5.72-2.81 7.49-4.4h4.23c2.38 3.26 2.5 12.62.81 20.39ZM894.78 6.82c-1.45 1.54.05 3.11-1 8.33-.73 3.7-1.75 4.27-2.2 8.09-.33 2.71-.53 4.37.36 6 1.57 2.86 5.59 4 8.58 3.68 5.55-.56 9.92-6.27 10.66-11.89.68-5.09-1.55-10.72-6-13.48-3.24-2.01-8.35-2.9-10.4-.73ZM953.11 17c-.52.37-3 .86-8 1.84-6 1.18-6.76 1.27-7.85.85-3.17-1.19-2.67-4.15-5.88-5.63-3.54-1.64-5.83 1.19-8.45-.25-3.32-1.81-4.62-9-2-13.65h33.47a11.25 11.25 0 0 1 1.41 2.26c2.37 5.04 1.08 11.89-2.7 14.58ZM960.34 16.74c1.27 1.56 4.37 1.77 6.13.37 2.31-1.85 1.29-5.69 1-6.86-.87-3.28-3.57-6.7-5.27-6.25-1.33.35-1.62 3-2.21 8.33-.34 3.01-.15 3.8.35 4.41ZM944.66 32.92a17.51 17.51 0 0 1 11.39-1c2.67.55 10.18 2.11 12.38 8.33 2.4 6.79-3.61 13.26-4.41 14.09a16.66 16.66 0 0 1-24.14 0c-1.09-1.16-4.36-4.68-4.17-9.68.29-7.5 8.16-11.37 8.95-11.74ZM935.22 54.92c-2.23-.45-6-.44-7.35 1.65-2 3 1.83 9.41 6.62 12.5 3.84 2.48 10 3.93 11.76 1.65 2.4-3.14-3.04-14.19-11.03-15.8ZM954.89 69.25c-10.51 1.09-17.92 9.39-20.4 16.91-.7 2.12-2.72 8.21.36 11.59 2.71 3 8.29 2.65 11.77 1.47 4.33-1.48 5.07-4.21 7.72-3.86 3.47.45 3.6 5.31 7.35 6.43 4.59 1.37 9.82-4.26 10.29-4.78 4.31-4.74 6.43-13 2.76-19.67-5.28-9.59-18.37-8.24-19.85-8.09ZM948.82 106.94c-7.35-.38-12.88 2.87-18 5.88-4 2.35-7.35 4.32-7.17 6.62.28 3.54 8.76 5.45 16.36 7.16 9.23 2.08 14.29 3.14 19.67.56.81-.4 7.93-3.92 7.9-8.83-.04-5.91-10.45-10.96-18.76-11.39ZM871.62 88.37c.33-.84 1.4-2.6 14.34-4 14.42-1.61 17.92 0 19.48.92 1.2.67 6.23 3.51 6.44 7.9.12 2.64-1.56 4.57-4.23 7.54-3.73 4.14-7.93 8.81-13 8.08-4.05-.57-7.76-4.37-7.17-6.43.81-2.81 9.51-1.81 9.74-3.68.14-1.15-3-3-6.43-3.49-6.65-1-9.61 3.9-14 2.39-3.65-1.3-6.32-6.29-5.17-9.23ZM872.72 63c-2.62 3.09-7 8.25-5.33 12.5 1.54 3.91 7.33 4.81 10.66 5.33 1.75.28 12.51 2 15.63-3.12 3.92-6.38-5.65-21.21-13.24-20.59-2.92.24-5.05 2.74-7.72 5.88Z" class="cls-3"/><path d="M890.55 56.39C890 58.56 895 59.5 897.17 65c2.22 5.73-1.2 9.8.74 11.39 2.94 2.42 15.8-2.86 16-11 .14-6-6.6-9.8-7.17-10.11-6.65-3.64-15.52-1.64-16.19 1.11ZM1035.06.15c-1.3 2.65-1.93 4.5-2.93 4.32-.82-.14-1.11-1.51-1.44-4.32ZM1086.91 14.77c-3.49 2.75-8.07 1.75-9.19 1.47-5.91-1.52-11-7.81-9.93-14.34a11.32 11.32 0 0 1 .42-1.72h20.87c2.28 4.87 1.86 11.4-2.17 14.59ZM1119.26 5.94c-.86 2-6.37 1.72-9.93.74a18.92 18.92 0 0 1-8.82-5.52c-.28-.31-.57-.65-.87-1h15.43c2.18 2.7 4.85 4.24 4.19 5.78ZM1165.21 7.78c-.08.38-.67.63-8.08 1.1-10 .64-10 .26-14 .74-7.33.9-8.73 2.4-11 1.1-3.26-1.85-4.92-7.42-3.44-10.57h18.55l1.06.28c7.47 2 17.29 5.65 16.91 7.35ZM1116.32 17.71c-10.77-3.31-12.83-4.41-15.07-2.94-2.69 1.75-4 6.09-2.58 8.08 1.82 2.56 6.57-.93 12.87 1.47 6 2.3 6.76 7.4 10.29 7s6.66-5.59 5.52-8.82c-.67-1.91-2.5-2.18-11.03-4.79ZM1136.17 16.6c3.94-3.81 9.85-3.38 19.12-2.57 2.34.21 13.81 1.21 14 3.68.11 1.72-5.4 2.53-5.52 5.14-.06 1.6 1.93 2.43 4.78 4.78 2.61 2.15 7.25 6 8.09 10.66.72 4-1.3 8.52-4.41 11-6.45 5.22-16.44.82-19.12-.36s-6-4.21-12.86-10.3c-7-6.22-8.16-8-7.73-9.56.92-3.14 8.59-3.55 8.46-4.41s-6.09.44-7.35-1.84c-.92-1.56.74-4.46 2.54-6.22ZM1171.91.15a3.68 3.68 0 0 1-.81 2.12c-1.86 2.2-6.62 1.74-8.46-1.11a5 5 0 0 1-.5-1ZM1170.73 10.35c-1.19 1.91.4 5.39 2.94 6.62 3 1.47 7.27-.35 7.72-2.57s-3.2-5.36-6.62-5.52c-.42-.02-3.04-.14-4.04 1.47ZM1191.79.15a5.37 5.37 0 0 1-4.52 1.75 4.68 4.68 0 0 1-3-1.75ZM1181.76 19.91c-2.12.43-5.65 1.88-5.88 4.05-.31 2.88 5.39 5.31 5.88 5.51 5.92 2.47 14 1.32 14.7-1.47s-5.42-7.11-10.66-8.09a10.43 10.43 0 0 0-4.04 0ZM1229.06 14.4c-5.2 3.13-7.45 9.3-7.35 14.46.15 8.08 6 12.88 7.1 13.72.66.51 8.45 6.42 16.92 3.19 7.75-3 12.38-12.17 10.29-15.93-1.19-2.14-4.28-2-4.66-4.17-.42-2.37 3.23-3.48 3.19-5.88-.06-3.63-8.5-7.27-16.18-7.35-2.67-.03-5.95-.07-9.31 1.96ZM1211.41 38.17c-1.19 1-.51 3.69.49 7.6 1.2 4.68 2.1 8.2 4.9 9.31 3.88 1.54 10-2.09 10.54-5.88.85-6.15-13.03-13.47-15.93-11.03ZM1198.67 40.62c-.53.13.79 4.21-1 5.39-2 1.34-5.26-2.78-8.09-1.71s-4.68 7.44-2.21 11.52c3 5 11.69 5.22 14.95 1.71 4.77-5.1-2.71-17.14-3.65-16.91ZM1207.49 19.79c-2 .84-1.54 9.1.74 9.8 1.37.43 3.94-1.72 4.16-4.41.3-3.48-3.5-5.97-4.9-5.39ZM1245.84.15a4.72 4.72 0 0 1-.36 1.75c-2.25 5.26-13.77 3.58-14.71 3.43S1222.15 4 1219.43.15ZM1284.14 4.84c-.59 4-4.37 7.74-8.52 9.42a9.67 9.67 0 0 1-7.38.32c-4.58-2-5.43-8.72-5.79-11.49v-.38c-.06-.53-.15-1.44-.18-2.56h21.22a8.7 8.7 0 0 1 .65 4.69ZM1304.34.15a21.26 21.26 0 0 1-.44 3.77c-1.47 6.86-7.4 13.86-11 12.78-2.8-.84-4.08-6.45-3.21-10.57a11.43 11.43 0 0 1 3.43-6ZM1284 37.38c-2-1.21-8.18-5-16-3.5-.88.17-10.64 2.11-11.77 7.72-.84 4.19 3.6 8 10.66 14 8.92 7.59 14.92 12.7 21 10.66 4.31-1.45 7-6 7.72-9.74 1.96-10.44-10.3-18.3-11.61-19.14ZM1263.37 64.58c-2.38-.31-5.43.62-6.06 2.39-1.11 3.08 5 9.12 8.08 7.9 2.32-.9 3.64-6.06 1.47-8.64a5.32 5.32 0 0 0-3.49-1.65ZM1278.08 68.07c3.27-1.88 7.28 0 9.19 2.58s2.29 6.79.18 9c-2.86 3-9.63 1.86-11.76-2.39-1.44-2.87-.85-7.32 2.39-9.19ZM1306 37.56c6.86 5.62 17 2.66 21.69 1.29 4.16-1.22 8.5-2.49 9.19-5.52 1-4.54-7-9.39-7.54-9.74-8.79-5.23-18.38-1.72-20.59-.92-3 1.11-6.47 2.36-7.35 5.33-1.05 3.6 2.27 7.63 4.6 9.56ZM1312.63 50.61c-3.94 2.11-6.85 7-5.69 10.66.49 1.59 3 3.26 7.9 6.62 3 2.07 3.48 2.11 3.86 2 4-.91 6.5-17.16.92-20.22-2.62-1.4-6.12.48-6.99.94ZM1306.75 12c2.57 5.21 10.3 4.35 11.4 4.23 2.28-.26 7.31-1.4 7.9-4.23.63-3-4.13-6.14-7.9-8.64-3.45-2.28-5.32-3.51-7.35-2.94-3.6 1.02-6.19 7.25-4.05 11.58ZM1277.34 25.8c8.08 2.58 17.25 1.05 17.56-1 .26-1.81-6.27-4.1-6.62-4.22-3-1.06-4.84-.92-10-1.29-8.72-.63-11.15-1.56-11.49-.74-.54 1.26 4.58 5.33 10.55 7.25ZM1364.76.15a11 11 0 0 1-2.3 7.38 2.43 2.43 0 0 1-.2.25 11.07 11.07 0 0 1-5.45 3.39c-5.26 1.52-11.4-.16-12.92-2.85-.78-1.37-.39-3.08-2-5a9.18 9.18 0 0 0-4-2.39 10.42 10.42 0 0 1-1.58-.83ZM1344.62 19.55c1-1.3 3.44.68 13.42 1.65a20.89 20.89 0 0 1 6.8 1.47c2 .86 5 2.11 5.33 4.41s-2 4.51-3.68 5.52c-4.8 2.92-11 .12-12.68-.74-6.33-3.21-10.67-10.3-9.19-12.31ZM1334.69 43.26c-3.23.21-12 .79-12.68 4-.11.49 0 .79 2.94 5.88 2.22 3.86 2.5 4.31 3.12 5a11.75 11.75 0 0 0 5.52 3.49c3 .73 4.06-.85 11.21-2.94 5.33-1.56 6.6-1.22 7.72-2.76 1.78-2.43 1.13-6.72-.92-9.37-3.25-4.21-9.66-3.78-16.91-3.3ZM1343 61.82c-5.07-.78-12 1.77-13.42 6.44-1 3.32 1 6.6 1.48 7.35 2.1 3.38 5.4 4.55 11.76 6.8a67.64 67.64 0 0 0 11 2.76c6.78 1.31 10.18 1.93 11 .55 1.29-2.12-4.62-6.52-3.13-9.56 1.19-2.41 5.79-1.41 6.44-3.49.38-1.23-1-2.29-4.78-6.44-5.17-5.67-5.75-7.18-7.54-7.16-2.67 0-3.12 3.38-6.8 4-2.4.47-3.18-.8-6.01-1.25ZM1320 72.12c-2.17-.43-3 3.34-8.46 6.43-4.56 2.58-8 2.23-8.09 3.49-.09 1.42 4.15 3 7.72 3.5 2.57.33 9.16 1.18 11.58-3 2.25-3.74-.16-9.91-2.75-10.42ZM1371.09 61.27c.71 2.12 3.75 3.32 6.25 3.13a7.15 7.15 0 0 0 6.43-6.44c.21-2.43-.86-5.49-2.94-6.25-3.94-1.43-11.1 5.54-9.74 9.56ZM1372 77.26a5 5 0 0 0-.19 5.52c1.21 2.09 4.06 3.52 6.44 2.39 2.58-1.24 3.3-4.88 1.83-7.17-1.73-2.72-6.19-3-8.08-.74ZM1367 107.23c2.62-.85 11.42-3.7 11.58-8.46.14-4-6-7.16-6.8-7.54-3.42-1.71-5-1-13.42-1.83-8.83-.88-9.56-1.92-13.05-1.11-3.91.91-9.76 3.78-10.11 7.72-.47 5.32 9.29 10 14.71 11.58a28.6 28.6 0 0 0 17.09-.36ZM1382.12 23.22c-1.13 5.1 3.31 9.42 11.76 17.65 7.5 7.3 11.38 11.08 15.62 10.11 6-1.38 8.19-11.29 9.38-16.73 2-9.14 1.46-20.45-2.21-21.51-2.81-.81-4.66 5.22-10.29 5.52-4.73.25-6-3.88-11-4.23-5.49-.38-12.11 3.97-13.26 9.19ZM1406.07.15c-.72 2.57-4.16 4.26-4.65 4.51-4.9 2.41-10.15.49-14.52-1.11l-.91-.33a44.15 44.15 0 0 1-6.87-3.07ZM1424 6.07c-.65 2.34-6.42 3.95-9 1.71-1.32-1.17-1.48-3.15-1.59-4.53a12.4 12.4 0 0 1 0-3.1h6.28c2.6 1.69 4.81 4.19 4.31 5.92ZM1426.23 20.53c-1.45 1.53 0 3.11-1 8.33-.73 3.69-1.75 4.27-2.2 8.09-.33 2.71-.53 4.37.36 6 1.57 2.86 5.59 4 8.58 3.68 5.55-.57 9.92-6.27 10.66-11.89.68-5.1-1.55-10.72-6-13.48-3.24-2.01-8.35-2.91-10.4-.73ZM1454.42 27.51c2.62 1.43 4.91-1.4 8.45.25 3.21 1.48 2.71 4.44 5.88 5.63 1.09.41 1.84.33 7.85-.85 5-1 7.44-1.47 8-1.84 3.78-2.68 5.07-9.53 2.7-14.59-2.17-4.61-6.72-6.31-8.82-7.1-4.71-1.77-8.69-1.1-14.59-.13s-8.65 1.44-10.54 3.68c-3.79 4.44-2.58 12.96 1.07 14.95ZM1491.79 30.45c1.27 1.56 4.37 1.77 6.13.37 2.31-1.85 1.29-5.69 1-6.86-.87-3.28-3.57-6.7-5.27-6.25-1.33.35-1.62 3-2.21 8.33-.35 2.96-.15 3.8.35 4.41ZM1472 .15a5.35 5.35 0 0 1-1.54 1.5 3.56 3.56 0 0 1-1.35.49 6.85 6.85 0 0 1-5.31-2l-.16-.15.66.15ZM1482.11 5.21c.78-.8 4.16.78 6.25 3.18 1.08 1.24 2.59 3.58 2 4.29-.76.87-4.72-.65-6.86-3.55-.9-1.13-2.01-3.28-1.39-3.92ZM1498.88 63.24c-9.86 2-18.72 4-26.61 5.77-.32-.29-.63-.6-.94-.93-1.09-1.17-4.36-4.68-4.17-9.68.29-7.52 8.16-11.39 8.95-11.77a17.57 17.57 0 0 1 11.39-1c2.67.56 10.18 2.12 12.38 8.33a11.7 11.7 0 0 1-1 9.28ZM1469.52 69.64l-1.73.39c-3.31.76-6.29 1.45-9 2.09a3.43 3.43 0 0 1 .51-1.84c1.34-2.09 5.12-2.1 7.35-1.65a11.13 11.13 0 0 1 2.87 1.01ZM1425 82.75c-4.94 2.38-9.2 5.07-20.14 10.86-2.57-.75-5.08-2-6-4.39-1.67-4.25 2.71-9.42 5.33-12.5s4.79-5.65 7.72-5.89c4.94-.41 10.75 5.8 13.09 11.92ZM1444.66 75.69a112.52 112.52 0 0 0-11.74 3.68c-1.37.52-2.59 1-3.71 1.48a10.86 10.86 0 0 0-.59-2.11c-2.14-5.53-7.14-6.47-6.62-8.64.67-2.75 9.54-4.74 16.18-1.1.44.25 4.82 2.7 6.48 6.69ZM1345.71 115.42c-3.65-.1-7.92-.25-15.45.18 0 0-10.73.61-21.85 2.35-2.37-2.18-4.94-5.1-5.54-8.47-.72-4 1.3-8.52 4.41-11 6.45-5.22 16.44-.82 19.12.36s6 4.21 12.87 10.3a61.72 61.72 0 0 1 6.44 6.28ZM1300.09 119.5a103.1 103.1 0 0 0-14.69 4.39c-1.68-1.42-2.69-2.93-2.38-4.12.72-2.79 8.78-3.94 14.7-1.47a20 20 0 0 1 2.37 1.2ZM1250.42 133.37c5.2-3.13 7.45-9.3 7.35-14.46-.15-8.08-6-12.89-7.1-13.73-.66-.51-8.44-6.41-16.91-3.18-7.76 3-12.39 12.17-10.3 15.93 1.19 2.13 4.28 2 4.66 4.16.42 2.37-3.23 3.48-3.19 5.89.06 3.62 8.5 7.27 16.18 7.35 2.67.03 5.95.06 9.31-1.96ZM1268.07 109.59c1.2-1 .51-3.68-.49-7.59-1.2-4.68-2.1-8.21-4.9-9.32-3.88-1.54-10 2.1-10.54 5.88-.85 6.16 13.03 13.44 15.93 11.03ZM1280.81 107.14c.53-.13-.79-4.2 1-5.39 2-1.34 5.26 2.79 8.09 1.72s4.68-7.44 2.21-11.52c-3-5-11.69-5.23-14.95-1.72-4.77 5.11 2.71 17.14 3.65 16.91ZM1272 128c2-.85 1.54-9.1-.74-9.81-1.37-.43-3.94 1.73-4.16 4.41-.31 3.46 3.49 5.96 4.9 5.4ZM1217.24 147.33l-2.93.9c-6.38 2-10.78 3.37-14.54 4.6-2.94-2.82-5-6.38-4.43-9.9.94-6.42 10.18-12.25 15.9-9.74 4.58 2 5.43 8.72 5.79 11.49.04.32.16 1.32.21 2.65ZM1183.3 150.09c2.2-1.56 5.59-4 6.52-8.45.87-4.12-.41-9.73-3.21-10.57-3.63-1.08-9.56 5.91-11 12.77-.09.4-1.48 7.21 1.19 8.64 1.79.97 4.57-1.01 6.5-2.39ZM1195.52 110.39c2 1.21 8.18 5 16 3.49.88-.16 10.64-2.1 11.77-7.72.84-4.18-3.6-8-10.66-14-8.92-7.58-14.92-12.69-21-10.66-4.31 1.45-7 6-7.72 9.74-2 10.45 10.26 18.31 11.61 19.15ZM1216.11 83.19c2.38.31 5.43-.62 6.07-2.39 1.1-3.09-5-9.12-8.09-7.91-2.32.91-3.64 6.06-1.47 8.64a5.41 5.41 0 0 0 3.49 1.66ZM1201.4 79.69c-3.27 1.89-7.28 0-9.19-2.57s-2.29-6.8-.18-9c2.86-3 9.63-1.86 11.76 2.39 1.45 2.86.85 7.32-2.39 9.18ZM1173.46 110.21c-6.86-5.62-17-2.67-21.69-1.29-4.16 1.21-8.5 2.48-9.19 5.51-1 4.55 7 9.39 7.54 9.75 8.79 5.22 18.39 1.72 20.59.92 3-1.11 6.47-2.37 7.35-5.34 1.07-3.6-2.24-7.63-4.6-9.55ZM1166.85 97.16c3.94-2.11 6.85-7 5.7-10.67-.5-1.58-3-3.26-7.91-6.61-3-2.07-3.48-2.11-3.86-2-4 .91-6.5 17.16-.92 20.22 2.6 1.4 6.14-.48 6.99-.94ZM1172.73 135.76c-2.57-5.22-10.3-4.35-11.4-4.23-2.28.25-7.31 1.4-7.9 4.23-.63 3 4.13 6.14 7.9 8.64 3.45 2.28 5.32 3.51 7.35 2.94 3.6-1.02 6.19-7.24 4.05-11.58ZM1202.14 122c-8.08-2.59-17.25-1-17.56 1-.26 1.81 6.27 4.11 6.62 4.23 3 1 4.84.91 10 1.29 8.72.62 11.15 1.55 11.49.73.54-1.25-4.58-5.37-10.55-7.25ZM1154.47 166.79c-6.89 1.87-14.38 3.89-26.81 7.56a2.31 2.31 0 0 1-.15-1.09c.34-2.95 7-4.35 12.5-5.51 5.08-1.08 9.6-2.03 14.46-.96ZM1149.57 157.08c.07-4.06-4-8.64-7.91-10.29a9.34 9.34 0 0 1-4-2.39c-1.63-1.89-1.24-3.59-2-5-2.12-3.74-13.18-5.53-18.38.55-5.43 6.35-1.11 17.31 4 19.67 3 1.36 5.58-.42 9.19 1.84 3.07 1.93 2.68 4.15 5 5.15 4.53 2.01 14-3.42 14.1-9.53ZM1134.86 128.22c-.95 1.3-3.43-.69-13.42-1.65a21.15 21.15 0 0 1-6.8-1.47c-2-.86-5-2.11-5.33-4.42s2-4.51 3.68-5.51c4.8-2.92 11-.12 12.68.73 6.33 3.22 10.67 10.3 9.19 12.32ZM1144.79 104.51c3.23-.22 12-.8 12.68-4.05.11-.48 0-.79-2.94-5.88-2.22-3.86-2.5-4.3-3.12-5a11.67 11.67 0 0 0-5.52-3.49c-3-.74-4.06.84-11.21 2.94-5.33 1.56-6.6 1.22-7.72 2.75-1.78 2.43-1.13 6.73.92 9.38 3.25 4.25 9.66 3.84 16.91 3.35ZM1136.52 85.94c5.07.79 12-1.76 13.42-6.43 1-3.32-1-6.6-1.47-7.35-2.11-3.38-5.41-4.55-11.77-6.8a67.64 67.64 0 0 0-11-2.76c-6.78-1.31-10.18-1.94-11-.55-1.29 2.11 4.62 6.52 3.13 9.56-1.19 2.41-5.79 1.4-6.44 3.49-.38 1.23 1 2.29 4.78 6.43 5.17 5.67 5.75 7.18 7.54 7.17 2.67 0 3.12-3.38 6.8-4 2.36-.48 3.14.8 6.01 1.24ZM1159.49 75.65c2.17.43 3-3.35 8.46-6.43 4.56-2.58 8-2.23 8.09-3.5s-4.15-3-7.72-3.49c-2.57-.33-9.16-1.18-11.58 2.94-2.23 3.83.15 9.96 2.75 10.48ZM1108.39 86.49c-.71-2.11-3.74-3.31-6.25-3.12a7.15 7.15 0 0 0-6.43 6.43c-.21 2.43.86 5.5 2.94 6.25 3.94 1.43 11.11-5.53 9.74-9.56ZM1107.47 70.5a5 5 0 0 0 .19-5.51c-1.21-2.09-4.06-3.53-6.44-2.39-2.58 1.23-3.3 4.88-1.83 7.17 1.74 2.71 6.2 2.95 8.08.73ZM1112.44 40.54c-2.62.85-11.42 3.69-11.58 8.46-.14 4 6.05 7.16 6.8 7.53 3.42 1.72 5 1 13.42 1.84 8.83.88 9.56 1.91 13.05 1.1 3.91-.91 9.76-3.78 10.11-7.72.47-5.31-9.29-10-14.71-11.58a28.66 28.66 0 0 0-17.09.37ZM1097.36 124.54c1.13-5.1-3.31-9.42-11.76-17.64-7.5-7.3-11.38-11.08-15.62-10.11-6 1.38-8.19 11.29-9.38 16.72-2 9.14-1.46 20.45 2.21 21.51 2.81.81 4.67-5.21 10.29-5.51 4.73-.25 6 3.87 11 4.22 5.49.39 12.11-3.96 13.26-9.19ZM1092.59 144.21c-4.38-1.6-9.63-3.51-14.53-1.1-.54.27-4.66 2.29-4.78 5.33-.09 2.42 2.46 3.3 6.44 7.54 5.62 6 5.19 9.16 8.27 9.74 2.38.45 5-1.6 10.11-5.7 4.42-3.51 6.63-5.27 6.62-7.17-.03-4.22-8-7.13-12.13-8.64ZM1066.24 155.55c-1.44 1.06-1 2.79-2.57 3.55-1.73.85-3.13-.85-4.78-.37-2.66.77-4.72 6.77-2.82 10.66 2.65 5.46 12.85 6.43 18.62 2.58.81-.54 3.7-2.47 4.29-5.88.72-4.11-2.35-7.76-5-9.44-1.98-1.21-5.67-2.65-7.74-1.1ZM1065.14 149.18c1.17-.75 1-3.32.85-4.66s-.27-3.37-1.59-4.54c-2.53-2.23-8.3-.62-9 1.72-.81 3.17 7.38 8.97 9.74 7.48ZM1053.25 127.24c1.45-1.54 0-3.11 1-8.33.73-3.7 1.75-4.27 2.21-8.09.32-2.72.52-4.38-.37-6-1.57-2.85-5.59-4-8.58-3.67-5.55.56-9.92 6.27-10.66 11.88-.68 5.1 1.55 10.73 6 13.48 3.24 2.01 8.35 2.9 10.4.73ZM1025.06 120.25c-2.62-1.43-4.91 1.4-8.45-.24-3.21-1.49-2.71-4.44-5.88-5.64-1.09-.41-1.84-.32-7.85.86-5 1-7.44 1.47-8 1.84-3.78 2.68-5.07 9.52-2.7 14.58 2.17 4.61 6.72 6.32 8.83 7.11 4.7 1.76 8.69 1.1 14.58.12s8.65-1.43 10.54-3.67c3.79-4.45 2.58-12.97-1.07-14.96ZM987.69 117.31c-1.27-1.56-4.37-1.77-6.13-.36-2.31 1.84-1.29 5.69-1 6.86.87 3.28 3.57 6.7 5.27 6.25 1.33-.35 1.62-3 2.21-8.33.35-3.01.15-3.8-.35-4.42ZM1012.07 164.5c-.71.62-1.42 1.24-2.16 1.81-5.67-.24-7.14.69-12.95-.82-.4-.1-.78-.21-1.15-.32a19.78 19.78 0 0 1-3.22-4.35c-1.34-2.5-3-7.35-1.23-8.94 2-1.81 6 2.78 10.79 1.22 4.57-1.5 4.41-6.9 8.21-7.47 3.31-.51 7.45 3 8.33 6.86 1.18 5.18-3.85 9.59-6.62 12.01ZM1027.15 155.91c-2.69-.57-5.15 1.68-7.48 3.8-1.14 1-3.49 3.19-2.94 4.42.43 1 2.28.61 6.13.85 6.37.41 8 1.79 8.94.74 1.73-1.84-.5-8.92-4.65-9.81ZM1059 178.59c-.56 1.3-2.43 1.76-4.39 1.88-2.18-1.22-4.83-2.62-8.31-4.2-1.71-.78-3.77-1.7-6.15-2.68a6.3 6.3 0 0 1 .59-2c1.4-2.89 4.71-3.45 5.64-3.56a9.43 9.43 0 0 1 5.14 1.1 13 13 0 0 1 6.25 5.27c.92 1.6 1.75 2.99 1.23 4.19ZM997.37 142.56c-.78.8-4.16-.78-6.25-3.19-1.07-1.23-2.59-3.57-2-4.29.76-.87 4.72.66 6.86 3.56.9 1.15 2.02 3.27 1.39 3.92ZM1003.37 101.14a17.57 17.57 0 0 1-11.39 1c-2.67-.56-10.18-2.12-12.38-8.33-2.4-6.79 3.61-13.26 4.41-14.1a16.68 16.68 0 0 1 24.14 0c1.09 1.17 4.36 4.68 4.17 9.68-.32 7.5-8.16 11.37-8.95 11.75ZM1012.81 79.14c2.23.45 6 .44 7.35-1.65 2-3-1.83-9.41-6.62-12.5-3.84-2.48-10-3.93-11.76-1.66-2.4 3.14 3.04 14.2 11.03 15.81ZM993.14 64.8c10.51-1.08 17.92-9.38 20.4-16.91.71-2.12 2.72-8.21-.36-11.58-2.71-3-8.29-2.65-11.77-1.47-4.33 1.48-5.07 4.21-7.72 3.86-3.47-.45-3.6-5.31-7.35-6.43-4.59-1.38-9.82 4.25-10.29 4.78-4.31 4.73-6.43 13-2.76 19.67 5.28 9.59 18.37 8.28 19.85 8.08ZM999.21 27.12c7.35.38 12.88-2.87 18-5.88 4-2.35 7.35-4.32 7.17-6.62-.28-3.54-8.76-5.46-16.36-7.17-9.23-2.08-14.29-3.14-19.67-.55-.81.39-7.93 3.92-7.9 8.83.05 5.91 10.45 10.96 18.76 11.39ZM1076.41 45.69c-.33.84-1.4 2.6-14.34 4-14.42 1.61-17.92 0-19.48-.92-1.2-.67-6.23-3.51-6.44-7.9-.12-2.64 1.56-4.57 4.23-7.54 3.73-4.14 7.93-8.81 13-8.09 4 .57 7.76 4.38 7.17 6.44-.81 2.81-9.51 1.8-9.74 3.67-.14 1.16 3 3 6.43 3.5 6.65 1 9.61-3.91 14-2.39 3.65 1.29 6.32 6.29 5.17 9.23ZM1075.31 71.05c2.62-3.08 7-8.24 5.33-12.5-1.54-3.91-7.32-4.81-10.66-5.33-1.75-.27-12.51-1.94-15.63 3.13-3.92 6.38 5.65 21.21 13.24 20.59 2.93-.24 5.05-2.74 7.72-5.89Z" class="cls-3"/><path d="M1057.48 77.67c.52-2.17-4.48-3.11-6.62-8.64-2.22-5.73 1.2-9.8-.74-11.39-2.94-2.43-15.8 2.86-16 11-.14 6 6.61 9.8 7.17 10.11 6.65 3.66 15.52 1.67 16.19-1.08ZM930.81 137.34c-.54 1.72-9.43-2.83-18 1.91a32.64 32.64 0 0 1-8 .62c-7.76-.57-13.53-4.57-17.64-7.84 2.47.54 5 1.29 6.95 1.88 4.78 1.42 7.32 2.85 10.17 1.59s2.71-3.84 5-5.51c6.43-4.67 22.26 5.01 21.52 7.35ZM632.73 57.07a4.28 4.28 0 0 1-3.17 2.21c-2.31-.61-4.54-1.25-6.71-1.91-1.71-2.68-.41-7.35 1.79-8.2 3.12-1.17 9.19 4.83 8.09 7.9ZM613.68 54.45c-3.77-1.25-6-2.17-12.44-4.84a6.21 6.21 0 0 1 1.35-5.22c2.86-3 9.63-1.86 11.77 2.39a7.59 7.59 0 0 1-.68 7.67ZM586.59 42c0 .49-.57.74-1.5 1-3-1.19-7.09-2.82-12-4.7a24.55 24.55 0 0 1 5.81.2c3.54.5 7.78 2.09 7.69 3.5ZM554.79 28a5.38 5.38 0 0 1-1.44 3c-7-2.48-14.63-5-22.37-7.44a78.49 78.49 0 0 0-15.6-3.53 36 36 0 0 1 7.62-3.21 28.67 28.67 0 0 1 17.09-.37c5.42 1.6 15.17 6.27 14.7 11.55ZM487.17 21.15c-7.83-.47-14.3-3.25-26-8.29-3.1-1.34-6.23-2.68-9.38-4.13 3.49-3.89 7.45-7.84 12.21-7.17 4.05.57 7.76 4.38 7.16 6.43-.81 2.82-9.51 1.81-9.74 3.68-.14 1.16 3 3 6.44 3.49 6.65 1 9.6-3.9 14-2.39 3.27 1.15 5.78 5.42 5.31 8.38ZM1511.82 23.23c-1.13 5.1 3.31 9.42 11.76 17.65 7.5 7.3 11.42 11.12 15.62 10.12 6-1.38 8.19-11.29 9.38-16.73 2-9.14 1.46-20.45-2.21-21.51-2.81-.81-4.66 5.22-10.29 5.52-4.73.25-6-3.88-11-4.23-5.49-.39-12.08 3.95-13.26 9.18ZM1553.73 6.08c-.65 2.34-6.42 3.95-9 1.71-1.32-1.17-1.48-3.15-1.59-4.53a12.4 12.4 0 0 1 0-3.1h6.28c2.58 1.69 4.78 4.19 4.31 5.92ZM1555.93 20.54c-1.45 1.53 0 3.11-1 8.33-.73 3.69-1.75 4.27-2.2 8.09-.33 2.71-.53 4.37.36 6 1.57 2.86 5.59 4 8.58 3.68 5.55-.56 9.92-6.27 10.66-11.89.68-5.1-1.55-10.72-6-13.48-3.24-2.01-8.33-2.91-10.4-.73Z" class="cls-3"/><path fill="#1d1b14" d="M2.91 174.43C1.93 174 1 173.46 0 173v7.15l.12.06A107.87 107.87 0 0 0 11 184.65h31.49a107.08 107.08 0 0 1-39.58-10.22Zm977.9-78.3a3.37 3.37 0 0 1-.21-.31 3.45 3.45 0 0 1-.2-.32l-.06-.1c-.12-.21-.23-.42-.34-.64a1.11 1.11 0 0 1-.07-.16c-.12-.25-.22-.51-.32-.78s-.15-.45-.21-.68-.06-.2-.08-.3-.08-.35-.11-.52-.06-.39-.09-.58v-.64a.41.41 0 0 1 0-.11q-2.22 1.11-4.5 2.34c-4.41 2.39-9 5.11-13.93 8.07l-1.07.64q-4.51 2.7-8.29 5.23a146.77 146.77 0 0 0-21.1 16.89c-1.18 1.12-2.27 2.19-3.3 3.2-1.46 1.44-2.76 2.71-4 3.82l.83.4.8.41.48.26.61.34.43.26.34.2c.13.07.25.15.37.23.37.24.73.48 1.06.72a5.92 5.92 0 0 1 .48.35l.27.2c.88-.84 1.78-1.73 2.73-2.66 1.79-1.75 3.77-3.69 6.1-5.82a147.05 147.05 0 0 1 21.9-16.43c1.12-.71 2.29-1.43 3.5-2.15 6.88-4.12 12.86-7.71 18.55-10.57a7.85 7.85 0 0 1-.57-.79Zm-136.6-20.59-4.29 1.78.45.21a22.12 22.12 0 0 1 2.26 1.31l.12.08.13.09.26.18.15.11c.23.16.45.33.68.51l.08.06.59.51a3.58 3.58 0 0 1 .29.27c.1.09.19.19.28.28a3.58 3.58 0 0 1 .27.29 2.32 2.32 0 0 1 .26.3c.07.07.12.14.18.21l.74-.31A204 204 0 0 1 867 73.81v-.76a6.94 6.94 0 0 1 .12-.9 1.42 1.42 0 0 0 0-.2V71.78a10.13 10.13 0 0 1 .48-1.44l.17-.39c.07-.15.14-.3.22-.45s.15-.3.23-.45l.07-.13c.09-.17.19-.34.29-.51l.11-.18c.14-.23.28-.46.43-.69l.22-.33c.15-.23.3-.45.46-.66v-.07a182 182 0 0 0-25.59 9.06Zm231.5 54.32-.34-.1a2.37 2.37 0 0 0-.36-.09 1.86 1.86 0 0 0-.34-.07 3.37 3.37 0 0 0-.36-.06h-1.17c-5.62.3-7.48 6.32-10.29 5.51l-.24-.09-.22-.11a1.56 1.56 0 0 1-.35-.24.8.8 0 0 1-.17-.15 3.13 3.13 0 0 1-.38-.42l-.13-.18c-.1-.16-.21-.32-.3-.5a2.44 2.44 0 0 1-.14-.28 1.47 1.47 0 0 1-.1-.22c-.06-.12-.11-.25-.16-.38s-.13-.33-.19-.51-.1-.33-.15-.51-.07-.25-.1-.37l-.09-.35-2.41 1.22c-15.09 7.67-23.34 15.5-30 21.8-.81.77-1.58 1.51-2.33 2.2a4.06 4.06 0 0 1 1.77 0l.31.08.41.14h.1l.1.05.18.09c.09 0 .18.1.27.15l.34.22.26.2q.19.15.39.33a2.5 2.5 0 0 1 .23.23 2.39 2.39 0 0 1 .22.23c.11.13.23.27.34.42l.07.09.27.37.11.18c.06.08.1.16.15.24l.14.24q.5-.45 1-.93c6.33-6 14.2-13.49 28.47-20.74a172.15 172.15 0 0 1 16.06-7.36 7.47 7.47 0 0 0-.87-.33Zm34.59-7.3c-.1-.11-.2-.22-.29-.34a2.83 2.83 0 0 1-.2-.28l-.14-.23a.31.31 0 0 1-.05-.1v-.11a1.75 1.75 0 0 1-.12-.32 3.2 3.2 0 0 1-.1-.42 3.14 3.14 0 0 1 0-.75.68.68 0 0 1 0-.15 1.55 1.55 0 0 1 .06-.31 1.29 1.29 0 0 1 .08-.28 1.25 1.25 0 0 1 .09-.25 1.69 1.69 0 0 1 .12-.28l.14-.29a.35.35 0 0 1 0-.08 3.21 3.21 0 0 1 .19-.31 2.71 2.71 0 0 1 .24-.35c.09-.11.17-.22.26-.32a7.4 7.4 0 0 1 .66-.71c-1.18 0-2.35 0-3.52.1l-1-.08c-5.79-.6-9.08-1.65-15.87-4.49l.37.38c.41.43.81.84 1.19 1.25l.66.74a26.28 26.28 0 0 1 3 3.88c.09.15.18.29.26.44a7.79 7.79 0 0 1 .44.86 8.49 8.49 0 0 1 .35.85 2.47 2.47 0 0 1 .1.29l.06.21a2.14 2.14 0 0 1 .09.34 3.15 3.15 0 0 1 .09.42 3 3 0 0 1 .06.42v.52a3.75 3.75 0 0 1 0 .67 2.56 2.56 0 0 1 0 .39c0 .17 0 .33-.07.5a85.27 85.27 0 0 1 10.27-1.23c1.09.08 2.18.13 3.28.13l-.35-.29c-.14-.21-.25-.31-.35-.42ZM980.81 96.13a3.37 3.37 0 0 1-.21-.31 3.45 3.45 0 0 1-.2-.32l-.06-.1c-.12-.21-.23-.42-.34-.64a1.11 1.11 0 0 1-.07-.16c-.12-.25-.22-.51-.32-.78s-.15-.45-.21-.68-.06-.2-.08-.3-.08-.35-.11-.52-.06-.39-.09-.58v-.64a.41.41 0 0 1 0-.11q-2.22 1.11-4.5 2.34c-4.41 2.39-9 5.11-13.93 8.07l-1.07.64q-4.51 2.7-8.29 5.23a146.77 146.77 0 0 0-21.1 16.89c-1.18 1.12-2.27 2.19-3.3 3.2-1.46 1.44-2.76 2.71-4 3.82l.83.4.8.41.48.26.61.34.43.26.34.2c.13.07.25.15.37.23.37.24.73.48 1.06.72a5.92 5.92 0 0 1 .48.35l.27.2c.88-.84 1.78-1.73 2.73-2.66 1.79-1.75 3.77-3.69 6.1-5.82a147.05 147.05 0 0 1 21.9-16.43c1.12-.71 2.29-1.43 3.5-2.15 6.88-4.12 12.86-7.71 18.55-10.57a7.85 7.85 0 0 1-.57-.79Zm-136.6-20.59-4.29 1.78.45.21a22.12 22.12 0 0 1 2.26 1.31l.12.08.13.09.26.18.15.11c.23.16.45.33.68.51l.08.06.59.51a3.58 3.58 0 0 1 .29.27c.1.09.19.19.28.28a3.58 3.58 0 0 1 .27.29 2.32 2.32 0 0 1 .26.3c.07.07.12.14.18.21l.74-.31A204 204 0 0 1 867 73.81v-.76a6.94 6.94 0 0 1 .12-.9 1.42 1.42 0 0 0 0-.2V71.78a10.13 10.13 0 0 1 .48-1.44l.17-.39c.07-.15.14-.3.22-.45s.15-.3.23-.45l.07-.13c.09-.17.19-.34.29-.51l.11-.18c.13-.23.28-.46.43-.69l.22-.33c.15-.23.3-.45.46-.66v-.07a182 182 0 0 0-25.59 9.06Zm231.5 54.32-.34-.1a2.37 2.37 0 0 0-.36-.09 1.86 1.86 0 0 0-.34-.07 3.37 3.37 0 0 0-.36-.06h-1.17c-5.62.3-7.48 6.32-10.29 5.51l-.24-.09-.22-.11a1.56 1.56 0 0 1-.35-.24.8.8 0 0 1-.17-.15 3.13 3.13 0 0 1-.38-.42l-.13-.18c-.1-.16-.21-.32-.3-.5a2.44 2.44 0 0 1-.14-.28 1.47 1.47 0 0 1-.1-.22c-.06-.12-.11-.25-.16-.38s-.13-.33-.19-.51-.1-.33-.15-.51-.07-.25-.1-.37l-.09-.35-2.41 1.22c-15.09 7.67-23.34 15.5-30 21.8-.81.77-1.58 1.51-2.33 2.2a4.06 4.06 0 0 1 1.77 0l.31.08.41.14h.1l.1.05.18.09c.09 0 .18.1.27.15l.34.22.26.2q.19.15.39.33a2.5 2.5 0 0 1 .23.23 2.39 2.39 0 0 1 .22.23c.11.13.23.27.34.42l.07.09.27.37.11.18c.06.08.1.16.15.24l.14.24q.5-.45 1-.93c6.33-6 14.2-13.49 28.47-20.74a172.15 172.15 0 0 1 16.06-7.36 7.47 7.47 0 0 0-.87-.33Zm34.59-7.3c-.1-.11-.2-.22-.29-.34a2.83 2.83 0 0 1-.2-.28l-.14-.23a.31.31 0 0 1-.05-.1v-.11a1.75 1.75 0 0 1-.12-.32 3.2 3.2 0 0 1-.1-.42 3.14 3.14 0 0 1 0-.75.68.68 0 0 1 0-.15 1.55 1.55 0 0 1 .06-.31 1.29 1.29 0 0 1 .08-.28 1.25 1.25 0 0 1 .09-.25 1.69 1.69 0 0 1 .12-.28l.14-.29a.35.35 0 0 1 0-.08 3.21 3.21 0 0 1 .19-.31 2.71 2.71 0 0 1 .24-.35c.09-.11.17-.22.26-.32a7.4 7.4 0 0 1 .66-.71c-1.18 0-2.35 0-3.52.1l-1-.08c-5.79-.6-9.08-1.65-15.87-4.49l.37.38c.41.43.81.84 1.19 1.25l.66.74a26.28 26.28 0 0 1 3 3.88c.09.15.18.29.26.44a7.79 7.79 0 0 1 .44.86 8.49 8.49 0 0 1 .35.85 2.47 2.47 0 0 1 .1.29l.06.21a2.14 2.14 0 0 1 .09.34 3.15 3.15 0 0 1 .09.42 3 3 0 0 1 .06.42v.52a3.75 3.75 0 0 1 0 .67 2.56 2.56 0 0 1 0 .39c0 .17 0 .33-.07.5a85.27 85.27 0 0 1 10.27-1.23c1.09.08 2.18.13 3.28.13l-.35-.29c-.14-.21-.25-.31-.35-.42ZM980.81 96.13a3.37 3.37 0 0 1-.21-.31 3.45 3.45 0 0 1-.2-.32l-.06-.1c-.12-.21-.23-.42-.34-.64a1.11 1.11 0 0 1-.07-.16c-.12-.25-.22-.51-.32-.78s-.15-.45-.21-.68-.06-.2-.08-.3-.08-.35-.11-.52-.06-.39-.09-.58v-.64a.41.41 0 0 1 0-.11q-2.22 1.11-4.5 2.34c-4.41 2.39-9 5.11-13.93 8.07l-1.07.64q-4.51 2.7-8.29 5.23a146.77 146.77 0 0 0-21.1 16.89c-1.18 1.12-2.27 2.19-3.3 3.2-1.46 1.44-2.76 2.71-4 3.82l.83.4.8.41.48.26.61.34.43.26.34.2c.13.07.25.15.37.23.37.24.73.48 1.06.72a5.92 5.92 0 0 1 .48.35l.27.2c.88-.84 1.78-1.73 2.73-2.66 1.79-1.75 3.77-3.69 6.1-5.82a147.05 147.05 0 0 1 21.9-16.43c1.12-.71 2.29-1.43 3.5-2.15 6.88-4.12 12.86-7.71 18.55-10.57a7.85 7.85 0 0 1-.57-.79ZM839.92 77.32l.45.21a22.12 22.12 0 0 1 2.26 1.31l.12.08.13.09.26.18.15.11c.23.16.45.33.68.51l.08.06c.2.16.4.33.59.51a3.58 3.58 0 0 1 .29.27c.1.09.19.19.28.28a3.58 3.58 0 0 1 .27.29 2.32 2.32 0 0 1 .26.3c.07.07.12.14.18.21l.74-.31A204 204 0 0 1 867 73.81v-.76a6.94 6.94 0 0 1 .12-.9 1.77 1.77 0 0 1 0-.2V71.78a10.13 10.13 0 0 1 .48-1.44l.17-.39c.07-.15.14-.3.22-.45s.15-.3.23-.45l.07-.13c.09-.17.19-.34.29-.51l.11-.18c.13-.23.28-.46.43-.69l.22-.33c.15-.23.3-.45.46-.66v-.07a182 182 0 0 0-25.78 9.13Zm235.79 52.54-.34-.1a2.37 2.37 0 0 0-.36-.09 1.86 1.86 0 0 0-.34-.07 3.37 3.37 0 0 0-.36-.06h-1.17c-5.62.3-7.48 6.32-10.29 5.51l-.24-.09-.22-.11a1.56 1.56 0 0 1-.35-.24.8.8 0 0 1-.17-.15 3.13 3.13 0 0 1-.38-.42l-.13-.18c-.1-.16-.21-.32-.3-.5a2.44 2.44 0 0 1-.14-.28 1.47 1.47 0 0 1-.1-.22c-.06-.12-.11-.25-.16-.38s-.13-.33-.19-.51-.1-.33-.15-.51-.07-.25-.1-.37l-.09-.35-2.41 1.22c-15.09 7.67-23.34 15.5-30 21.8-.81.77-1.58 1.51-2.33 2.2a4.06 4.06 0 0 1 1.77 0l.31.08.41.14h.1l.1.05.18.09c.09 0 .18.1.27.15l.34.22.26.2q.19.15.39.33a2.5 2.5 0 0 1 .23.23 2.39 2.39 0 0 1 .22.23c.11.13.23.27.34.42l.07.09.27.37.11.18c.06.08.1.16.15.24l.14.24q.5-.45 1-.93c6.33-6 14.2-13.49 28.47-20.74a172.15 172.15 0 0 1 16.06-7.36 7.47 7.47 0 0 0-.87-.33Zm34.59-7.3c-.1-.11-.2-.22-.29-.34a2.83 2.83 0 0 1-.2-.28l-.14-.23a.31.31 0 0 1-.05-.1v-.11a1.75 1.75 0 0 1-.12-.32 3.2 3.2 0 0 1-.1-.42 3.14 3.14 0 0 1 0-.75.77.77 0 0 1 0-.15 1.55 1.55 0 0 1 .06-.31 1.29 1.29 0 0 1 .08-.28 1.25 1.25 0 0 1 .09-.25 1.39 1.39 0 0 1 .12-.28l.14-.29a.35.35 0 0 1 0-.08 3.21 3.21 0 0 1 .19-.31 2.71 2.71 0 0 1 .24-.35c.09-.11.17-.22.26-.32a7.4 7.4 0 0 1 .66-.71c-1.18 0-2.35 0-3.52.1l-1-.08c-5.79-.6-9.08-1.65-15.87-4.49l.37.38c.41.43.81.84 1.19 1.25l.66.74a26.28 26.28 0 0 1 3 3.88c.09.15.18.29.26.44a7.79 7.79 0 0 1 .44.86 8.49 8.49 0 0 1 .35.85 2.47 2.47 0 0 1 .1.29l.06.21a2.14 2.14 0 0 1 .09.34 3.15 3.15 0 0 1 .09.42 3 3 0 0 1 .06.42v.52a3.75 3.75 0 0 1 0 .67 2.56 2.56 0 0 1 0 .39c0 .17 0 .33-.07.5a85.27 85.27 0 0 1 10.27-1.23c1.09.08 2.18.13 3.28.13l-.35-.29c-.14-.21-.25-.31-.35-.42Zm470.94 62.09v-2.88q-9.63 1-18.88 2.88ZM1306.06 37.59c.9-.07 1.79-.12 2.68-.16a58.85 58.85 0 0 0 8.61 0 77.66 77.66 0 0 1 11 1.23 68.88 68.88 0 0 1 14.46 4.34 89.37 89.37 0 0 1 9.55 4.75c4.34 2.46 8.54 5.2 12.9 8.05 1.86 1.22 3.76 2.46 5.71 3.7 2.45 1.56 5 3.13 7.64 4.66a114.1 114.1 0 0 0 26.55 11.37 118.69 118.69 0 0 0 17.4 3.53l.66.08c.94.12 1.86.22 2.75.32l-2.15.73a122 122 0 0 0-23 11.49c-1.8 1.1-3.57 2.21-5.34 3.32-14.49 9.07-28.31 17.73-51.15 18.82a113 113 0 0 1-14.56-.28 202.58 202.58 0 0 1-26.89-4.27c-6.89-1.53-14.27-3.47-21.94-5.84-1.11-.35-2.22-.7-3.34-1.07q-5.38-1.73-10.9-3.77t-11.32-4.46c-6.69-2.81-13.41-6-20-9.45-4.06-2.14-7.72-4.22-11.27-6.23l-3-1.72c-2.34-1.32-4.64-2.6-7-3.82a118.59 118.59 0 0 0-12.2-5.64 129.35 129.35 0 0 0 15.38-5.63c7.11-2.91 16-6.54 28.89-10.62 3.22-1 7.32-2.31 12-3.69 8.47-2.5 18.85-5.29 29.51-7.29a159.43 159.43 0 0 1 18.37-2.45Zm-8.63 80.6c-3.24 1.16-6.68 2.55-10.66 4.18l-2.09.86c-10 4.06-23.64 9.45-46 16.22-8.35 2.52-15.4 4.63-21.49 6.3a133.79 133.79 0 0 1-19.79 4.25 40.41 40.41 0 0 1-12.73-.32l-.57-.12a47.06 47.06 0 0 1-8.86-2.72c-1.26-.54-2.44-1.11-3.57-1.72-5.15-2.79-9-6.29-13-9.9-.83-.74-1.65-1.49-2.5-2.24-5.6-5-11.84-9.82-21.9-13.07 2.79-.67 5.76-1.42 9-2.26 4.31-1.13 9-2.43 14.33-3.87 5.58-1.52 10.51-3 14.9-4.37 5.18-1.62 9.62-3.12 13.54-4.44l2.33-.79c10.71-3.59 18.54-6 30.16-6.91l2-.13a123.78 123.78 0 0 1 30.36 2l1.39.6c5.61 2.39 11.1 4.51 16.39 6.37a276.25 276.25 0 0 0 35.62 10c-2.35.55-4.56 1.26-6.86 2.08Zm-189.73-1.55-1-.08c-5.79-.6-9.08-1.65-15.87-4.49l-5.68-2.42c-5-2.13-11.43-4.9-20.39-8.53-2.19-.89-4.53-1.83-7-2.82-13.61-5.41-23.23-8.91-30.16-11.17 7.54-1 14.25-2.63 22.75-4.65 11.74-2.78 26.88-6.36 52.57-10.56l3.53-.57q5.41-.87 11.45-1.76l8.71-1.26c4.65-.66 9.15-1.26 13.57-1.72 5.51-.59 10.9-1 16.36-1a118.41 118.41 0 0 1 14.91.76c.7.24 1.41.46 2.15.67a51.74 51.74 0 0 0 12.21 1.9q2.64.65 5 1.35a101.87 101.87 0 0 1 13.55 5c2.47 1.11 4.84 2.29 7.17 3.53 2.52 1.33 5 2.72 7.55 4.16l1.78 1c3.58 2 7.28 4.14 11.43 6.33l.71.36a128.26 128.26 0 0 0-13 .08c-2.92.17-5.62.43-8.17.77-9.81 1.32-17.47 3.85-27.11 7.1l-.86.29c-7.55 2.55-16.1 5.43-28.09 8.71-13.33 3.64-23.09 6.3-31.11 7.79a79.37 79.37 0 0 1-8.63 1.2c-1.62-.09-3.22-.12-4.81-.09-1.22.03-2.35.06-3.52.12Zm-47.61 14.07-2.41 1.22c-15.09 7.67-23.34 15.5-30 21.8-.81.77-1.58 1.51-2.33 2.2a44.05 44.05 0 0 1-8.18 6.42 20.05 20.05 0 0 1-5 2c-.43.12-.86.21-1.31.3-1.42.08-2.87.22-4.37.43a24.87 24.87 0 0 1-13.63-3.65c-2.22-1.27-4.44-2.82-6.9-4.53-7.13-5-16-11.15-31.68-15.72a117.65 117.65 0 0 0-23.58-4.33c-1.51-.13-3-.22-4.4-.28.73-.65 1.47-1.34 2.23-2.06s1.78-1.73 2.73-2.66c1.79-1.75 3.77-3.69 6.1-5.82a147.05 147.05 0 0 1 21.9-16.43c1.12-.71 2.29-1.43 3.5-2.15 6.88-4.12 12.86-7.71 18.55-10.57 9-4.52 17.23-7.24 27.13-7.45a20.58 20.58 0 0 1 3.8.22c4.45.66 13.35 3.05 35.21 11.51 2.45 1 5.07 2 7.86 3.08l.45.18q3.42 1.35 6.43 2.57c9 3.64 15.42 6.41 20.39 8.54 3.37 1.44 6.07 2.6 8.43 3.54a141.19 141.19 0 0 0-30.92 11.64ZM894.32 134c-2.46-1.39-5.24-3.15-8.63-5.31a348.77 348.77 0 0 0-40.41-22.56c-11.49-5.51-20.12-9.63-27.48-12.45h-.06c-.85-.33-1.69-.64-2.5-.92h-.11c-1-.35-1.94-.67-2.88-1l.55-.07c13.06-1.63 23-5.65 33.18-9.9l.74-.31A204 204 0 0 1 867 73.81a126.4 126.4 0 0 1 26.46-4.91c1.44-.12 2.92-.22 4.44-.29 3-.17 6.12-.25 9.43-.25h2.7c1.07 0 2.12 0 3.15.08 13.39.43 23 2.35 31 4.82 5.25 1.62 9.82 3.49 14.31 5.33A141 141 0 0 0 976.62 85c1.09.3 2.22.57 3.37.83 2.32.53 4.77 1 7.39 1.38-2.78 1.06-5.53 2.29-8.33 3.67q-2.22 1.11-4.5 2.34c-4.41 2.39-9 5.11-13.93 8.07l-1.07.64q-4.51 2.7-8.29 5.23a146.77 146.77 0 0 0-21.1 16.89c-1.18 1.12-2.27 2.19-3.3 3.2-1.46 1.44-2.76 2.71-4 3.82a23.63 23.63 0 0 1-8.37 5.45c-3.55.16-6.48.43-8.61.63q-1.47.13-2.85.3a28.34 28.34 0 0 1-8.71-3.45ZM442.61 75.1c-.81.08-1.63.13-2.45.23C425.53 77 391.27 81 365.21 100l-.7.51c-3.48 2.55-9.28 6.78-17.7 8.28a32.62 32.62 0 0 0-11.11-.11c-.78-.15-1.55-.31-2.32-.48a50.36 50.36 0 0 0-6.38-1.1 24.82 24.82 0 0 0-12.11 1.9c-5.95-1.28-9.94-3.48-15.47-6.54-3.75-2.07-8-4.42-13.9-7.11a229.6 229.6 0 0 0-23.7-9.74c3.3-1 6.69-2.23 10.72-3.72a358.76 358.76 0 0 1 41.22-12.77 296.29 296.29 0 0 1 30.78-6.18c9.55-1.5 21.43-3.37 45.61-8.71l1.17.59c16.13 8.18 31.45 15.89 51.29 20.28ZM243.19 33.31c49.25-13.21 95.23-.31 108.14 4A233.13 233.13 0 0 1 381 49.69c-18.92 4-29.1 5.64-37.49 7a300 300 0 0 0-31.34 6.29 362 362 0 0 0-41.88 13c-10.78 4-16.37 6-28.2 5.66l-2-.09a108.45 108.45 0 0 1-20.33-3.18 191.37 191.37 0 0 0-35.49-5.15c-6.9-.41-12.73-.75-18.1-.87 2.76-1.88 5.56-4 8.53-6.23a210.52 210.52 0 0 1 20.6-14.18c17.7-10.54 33.07-14.65 47.89-18.63Zm-118 33.28c-2.83-1.87-6-4-10.09-6.43C103.21 53 70.92 33.5 37.48 32c2.62-1.38 5.14-2.88 7.79-4.46a150.29 150.29 0 0 1 18.78-9.84c3.48-1.49 35-14.4 68.53-10.36 20.71 2.49 33.29 10.4 44.4 17.39 9.69 6.09 19 11.91 31.83 13.13a148.34 148.34 0 0 0-16.75 8.53A214.46 214.46 0 0 0 170.86 61c-7.29 5.5-12.9 9.71-19 11.73-3 .28-6.07.7-9.29 1.29-6.48-.28-10.15-2.68-17.34-7.43Zm30.46 77.58c-7.32 2.16-13.51-1.14-24.75-7.12-2.48-1.33-5.17-2.76-8.13-4.26-20-10.2-35.45-15.26-55-21.67l-4.67-1.53c6.28-1.25 12.69-3.11 20-5.27a150.28 150.28 0 0 0 32.69-13.68c7.79-4.21 14.53-7.85 27.18-10.26a32 32 0 0 0 10-1.39c9-.77 17.73-.25 30.84.53a185.45 185.45 0 0 1 34.45 5l1.86.42c-11.33 4.5-19.28 12.52-24.21 17.52A112.83 112.83 0 0 0 184.89 116a118.52 118.52 0 0 1-18 20.31c-5.05 4.49-8.83 7.16-11.2 7.86Zm61.09 13.65a93.4 93.4 0 0 0-12.89-7.47c-11.92-5.52-24.24-7.08-35.87-6.62 1-.81 2-1.7 3.15-2.72A123.6 123.6 0 0 0 190 119.73a107.16 107.16 0 0 1 10.51-12.8c5.36-5.43 13.47-13.64 25.29-17.23 19.16-5.81 39.28 3.36 57 11.45 5.68 2.59 9.81 4.87 13.46 6.89a82.61 82.61 0 0 0 10.7 5.28c-5.95 3.93-13.2 9.84-23.43 18.18-4.86 4-10.42 8.5-16.86 13.67-20.37 16.31-25.1 19.23-31.64 19.49-7.43.34-11.97-2.66-18.25-6.84Zm160.14-5.22c-7.77 3.78-16.59 8.07-28.69 13.17-24.84 10.46-37.3 15.71-45.83 15.22-10.37-.6-16.45-4-22.9-7.59-7.16-4-14.56-8.11-27.49-8.31h-1c4.79-3.17 10.87-7.92 19.66-15 6.46-5.18 12-9.73 16.91-13.7 13.87-11.32 21.74-17.74 28-20.8.81.14 1.63.27 2.51.38a44.7 44.7 0 0 0 16-.62l1.51-.28a34.58 34.58 0 0 0 11.1.11c8.39 1.64 13 5.33 18.72 10 4.85 3.92 10.35 8.37 19.14 12.45 4.9 2.27 8.64 3.4 15.86 4.71-7.64 2.57-14.65 5.97-23.46 10.26Zm43.2-14.5-2.81.39-.41.06c-18.7-2.86-22.84-3.55-29.58-6.68a79.6 79.6 0 0 1-17.81-11.61c-3.73-3-7.34-5.93-12-8.17a56 56 0 0 0 10.75-6.47l.67-.49c24.71-17.95 57.82-21.82 72-23.48a159.39 159.39 0 0 1 28.37-.71c12 3 19.89 5.52 28.26 8.21 4.21 1.34 8.55 2.74 13.68 4.28l11.32 3.39c-18 .82-38.28 5-54.74 17.82-1.18.91-2.43 2-3.79 3.07-6.87 5.67-16.27 13.44-31.25 17.87a74.37 74.37 0 0 1-12.62 2.52Zm189.27 16.61c-15.32 8.23-29.79 16-53 15-2.24-.28-4.51-.47-6.78-.6-7.53-1-12.11-3.14-18-5.84-9-4.16-20.22-9.34-47.21-14-7.11-1.23-27.09-4.43-49-7.83 15.69-4.84 25.45-12.88 32.61-18.79 1.3-1.08 2.51-2.07 3.64-3 25.62-19.92 62.18-17.35 81.36-15.2 1.54.22 3 .4 4.53.53 12.71 1.52 23.84 5.36 46 13a391.22 391.22 0 0 1 41.5 16.93c2.73 1.28 5.19 2.42 7.51 3.44-17.92 2.85-30.69 9.65-43.12 16.36Zm68.22-17.55c-1.09-.06-2.18-.11-3.29-.14-1.63-.05-3.2-.05-4.75 0-6.9-.84-12.72-3.54-21.93-7.84a394.65 394.65 0 0 0-42-17.15c-10.11-3.49-18-6.2-24.75-8.28 8.53-1.54 19.27-4.38 34.14-9.15 28.68-9.22 41.79-15.72 51.36-20.47 3.74-1.86 6.8-3.37 10-4.62A92.24 92.24 0 0 0 698 65.07c15.61-.73 25.72 4.35 38 10.57 11.77 6 25 12.63 45.87 15.48-9.83 2.73-24.91 8.73-51.48 21.44-18.52 8.86-29.07 14.49-36 18.22-9.48 5.06-11.28 6.01-16.78 6.38Zm193 9.74c-9.07 3.64-20.35 8.18-38.34 14-19.23 6.36-31.23 10.18-40.04 11.49a74.61 74.61 0 0 0-10.18.27c-11.48-1.47-18.28-5.75-26.87-11.17-7.42-4.68-15.84-10-29.26-15a174.61 174.61 0 0 0-32.78-7.86l4.27-2.27c6.93-3.7 17.41-9.29 35.8-18.09 45.63-21.8 56.26-23.27 64.62-22.85 11.5.54 22.61 5.86 44.75 16.44a344.64 344.64 0 0 1 39.73 22.2c3.39 2.16 6.33 4 9.06 5.54-6.74 1.71-12.75 4.12-20.67 7.3Zm632.53-56.62c13.38 4.23 28.14 8.9 50.38 11.93q-8.28 3.26-16.32 7.05c-18.6 8.84-30.09 17.09-39.33 23.71-11.31 8.12-19.53 14-34.36 16.36a52.56 52.56 0 0 0-11.61-.72c-1.58.08-3.06.22-4.46.43-13.8-2-33.12-7.72-62.61-16.47-19.08-5.66-30.57-9.71-38.37-12.52 23.48-1.57 38.15-10.72 52.4-19.64 17-10.65 33-20.73 63.92-18.86 15.74.95 27.15 4.56 40.36 8.73Zm-392.8 32.28c-.1-.11-.2-.22-.29-.34a2.83 2.83 0 0 1-.2-.28l-.14-.23a.31.31 0 0 1-.05-.1v-.11a1.75 1.75 0 0 1-.12-.32 3.2 3.2 0 0 1-.1-.42 3.14 3.14 0 0 1 0-.75.68.68 0 0 1 0-.15 1.55 1.55 0 0 1 .06-.31 1.29 1.29 0 0 1 .08-.28 1.25 1.25 0 0 1 .09-.25 1.69 1.69 0 0 1 .12-.28l.14-.29a.35.35 0 0 1 0-.08 3.21 3.21 0 0 1 .19-.31 2.71 2.71 0 0 1 .24-.35c.09-.11.17-.22.26-.32a7.4 7.4 0 0 1 .66-.71c-1.18 0-2.35 0-3.52.1l-1-.08c-5.79-.6-9.08-1.65-15.87-4.49l.37.38c.41.43.81.84 1.19 1.25l.66.74a26.28 26.28 0 0 1 3 3.88c.09.15.18.29.26.44a7.79 7.79 0 0 1 .44.86 8.49 8.49 0 0 1 .35.85 2.47 2.47 0 0 1 .1.29l.06.21a2.14 2.14 0 0 1 .09.34 3.15 3.15 0 0 1 .09.42 3 3 0 0 1 .06.42v.52a3.75 3.75 0 0 1 0 .67 2.56 2.56 0 0 1 0 .39c0 .17 0 .33-.07.5a85.27 85.27 0 0 1 10.27-1.23c1.09.08 2.18.13 3.28.13l-.35-.29c-.14-.21-.25-.31-.35-.42Zm-34.59 7.3-.34-.1a2.37 2.37 0 0 0-.36-.09 1.86 1.86 0 0 0-.34-.07 3.37 3.37 0 0 0-.36-.06h-1.17c-5.62.3-7.48 6.32-10.29 5.51l-.24-.09-.22-.11a1.56 1.56 0 0 1-.35-.24.8.8 0 0 1-.17-.15 3.13 3.13 0 0 1-.38-.42l-.13-.18c-.1-.16-.21-.32-.3-.5a2.44 2.44 0 0 1-.14-.28 1.47 1.47 0 0 1-.1-.22c-.06-.12-.11-.25-.16-.38s-.13-.33-.19-.51-.1-.33-.15-.51-.07-.25-.1-.37l-.09-.35-2.41 1.22c-15.09 7.67-23.34 15.5-30 21.8-.81.77-1.58 1.51-2.33 2.2a4.06 4.06 0 0 1 1.77 0l.31.08.41.14h.1l.1.05.18.09c.09 0 .18.1.27.15l.34.22.26.2q.19.15.39.33a2.5 2.5 0 0 1 .23.23 2.39 2.39 0 0 1 .22.23c.11.13.23.27.34.42l.07.09.27.37.11.18c.06.08.1.16.15.24l.14.24q.5-.45 1-.93c6.33-6 14.2-13.49 28.47-20.74a172.15 172.15 0 0 1 16.06-7.36 7.47 7.47 0 0 0-.87-.33Zm-231.5-54.32-4.29 1.78.45.21a22.12 22.12 0 0 1 2.26 1.31l.12.08.13.09.26.18.15.11c.23.16.45.33.68.51l.08.06.59.51a3.58 3.58 0 0 1 .29.27c.1.09.19.19.28.28a3.58 3.58 0 0 1 .27.29 2.32 2.32 0 0 1 .26.3c.07.07.12.14.18.21l.74-.31A204 204 0 0 1 867 73.81v-.76a6.94 6.94 0 0 1 .12-.9 1.42 1.42 0 0 0 0-.2V71.78a10.13 10.13 0 0 1 .48-1.44l.17-.39c.07-.15.14-.3.22-.45s.15-.3.23-.45l.07-.13c.09-.17.19-.34.29-.51l.11-.18c.13-.23.28-.46.43-.69l.22-.33c.15-.23.3-.45.46-.66v-.07a182 182 0 0 0-25.59 9.06Zm136.6 20.59a3.37 3.37 0 0 1-.21-.31 3.45 3.45 0 0 1-.2-.32l-.06-.1c-.12-.21-.23-.42-.34-.64a1.11 1.11 0 0 1-.07-.16c-.12-.25-.22-.51-.32-.78s-.15-.45-.21-.68-.06-.2-.08-.3-.08-.35-.11-.52-.06-.39-.09-.58v-.64a.41.41 0 0 1 0-.11q-2.22 1.11-4.5 2.34c-4.41 2.39-9 5.11-13.93 8.07l-1.07.64q-4.51 2.7-8.29 5.23a146.77 146.77 0 0 0-21.1 16.89c-1.18 1.12-2.27 2.19-3.3 3.2-1.46 1.44-2.76 2.71-4 3.82l.83.4.8.41.48.26.61.34.43.26.34.2c.13.07.25.15.37.23.37.24.73.48 1.06.72a5.92 5.92 0 0 1 .48.35l.27.2c.88-.84 1.78-1.73 2.73-2.66 1.79-1.75 3.77-3.69 6.1-5.82a147.05 147.05 0 0 1 21.9-16.43c1.12-.71 2.29-1.43 3.5-2.15 6.88-4.12 12.86-7.71 18.55-10.57a7.85 7.85 0 0 1-.57-.79Zm129.49 26.43c-.1-.11-.2-.22-.29-.34a2.83 2.83 0 0 1-.2-.28l-.14-.23a.31.31 0 0 1-.05-.1v-.11a1.75 1.75 0 0 1-.12-.32 3.2 3.2 0 0 1-.1-.42 3.14 3.14 0 0 1 0-.75.68.68 0 0 1 0-.15 1.55 1.55 0 0 1 .06-.31 1.29 1.29 0 0 1 .08-.28 1.25 1.25 0 0 1 .09-.25 1.69 1.69 0 0 1 .12-.28l.14-.29a.35.35 0 0 1 0-.08 3.21 3.21 0 0 1 .19-.31 2.71 2.71 0 0 1 .24-.35c.09-.11.17-.22.26-.32a7.4 7.4 0 0 1 .66-.71c-1.18 0-2.35 0-3.52.1l-1-.08c-5.79-.6-9.08-1.65-15.87-4.49l.37.38c.41.43.81.84 1.19 1.25l.66.74a26.28 26.28 0 0 1 3 3.88c.09.15.18.29.26.44a7.79 7.79 0 0 1 .44.86 8.49 8.49 0 0 1 .35.85 2.47 2.47 0 0 1 .1.29l.06.21a2.14 2.14 0 0 1 .09.34 3.15 3.15 0 0 1 .09.42 3 3 0 0 1 .06.42v.52a3.75 3.75 0 0 1 0 .67 2.56 2.56 0 0 1 0 .39c0 .17 0 .33-.07.5a85.27 85.27 0 0 1 10.27-1.23c1.09.08 2.18.13 3.28.13l-.35-.29c-.14-.21-.25-.31-.35-.42Zm-34.59 7.3-.34-.1a2.37 2.37 0 0 0-.36-.09 1.86 1.86 0 0 0-.34-.07 3.37 3.37 0 0 0-.36-.06h-1.17c-5.62.3-7.48 6.32-10.29 5.51l-.24-.09-.22-.11a1.56 1.56 0 0 1-.35-.24.8.8 0 0 1-.17-.15 3.13 3.13 0 0 1-.38-.42l-.13-.18c-.1-.16-.21-.32-.3-.5a2.44 2.44 0 0 1-.14-.28 1.47 1.47 0 0 1-.1-.22c-.06-.12-.11-.25-.16-.38s-.13-.33-.19-.51-.1-.33-.15-.51-.07-.25-.1-.37l-.09-.35-2.41 1.22c-15.09 7.67-23.34 15.5-30 21.8-.81.77-1.58 1.51-2.33 2.2a4.06 4.06 0 0 1 1.77 0l.31.08.41.14h.1l.1.05.18.09c.09 0 .18.1.27.15l.34.22.26.2q.19.15.39.33a2.5 2.5 0 0 1 .23.23 2.39 2.39 0 0 1 .22.23c.11.13.23.27.34.42l.07.09.27.37.11.18c.06.08.1.16.15.24l.14.24q.5-.45 1-.93c6.33-6 14.2-13.49 28.47-20.74a172.15 172.15 0 0 1 16.06-7.36 7.47 7.47 0 0 0-.87-.33Zm-231.5-54.32-4.29 1.78.45.21a22.12 22.12 0 0 1 2.26 1.31l.12.08.13.09.26.18.15.11c.23.16.45.33.68.51l.08.06.59.51a3.58 3.58 0 0 1 .29.27c.1.09.19.19.28.28a3.58 3.58 0 0 1 .27.29 2.32 2.32 0 0 1 .26.3c.07.07.12.14.18.21l.74-.31A204 204 0 0 1 867 73.81v-.76a6.94 6.94 0 0 1 .12-.9 1.42 1.42 0 0 0 0-.2V71.78a10.13 10.13 0 0 1 .48-1.44l.17-.39c.07-.15.14-.3.22-.45s.15-.3.23-.45l.07-.13c.09-.17.19-.34.29-.51l.11-.18c.14-.23.28-.46.43-.69l.22-.33c.15-.23.3-.45.46-.66v-.07a182 182 0 0 0-25.59 9.06Zm136.6 20.59a3.37 3.37 0 0 1-.21-.31 3.45 3.45 0 0 1-.2-.32l-.06-.1c-.12-.21-.23-.42-.34-.64a1.11 1.11 0 0 1-.07-.16c-.12-.25-.22-.51-.32-.78s-.15-.45-.21-.68-.06-.2-.08-.3-.08-.35-.11-.52-.06-.39-.09-.58v-.64a.41.41 0 0 1 0-.11q-2.22 1.11-4.5 2.34c-4.41 2.39-9 5.11-13.93 8.07l-1.07.64q-4.51 2.7-8.29 5.23a146.77 146.77 0 0 0-21.1 16.89c-1.18 1.12-2.27 2.19-3.3 3.2-1.46 1.44-2.76 2.71-4 3.82l.83.4.8.41.48.26.61.34.43.26.34.2c.13.07.25.15.37.23.37.24.73.48 1.06.72a5.92 5.92 0 0 1 .48.35l.27.2c.88-.84 1.78-1.73 2.73-2.66 1.79-1.75 3.77-3.69 6.1-5.82a147.05 147.05 0 0 1 21.9-16.43c1.12-.71 2.29-1.43 3.5-2.15 6.88-4.12 12.86-7.71 18.55-10.57a7.85 7.85 0 0 1-.57-.79Zm94.9 33.73-.34-.1a2.37 2.37 0 0 0-.36-.09 1.86 1.86 0 0 0-.34-.07 3.37 3.37 0 0 0-.36-.06h-1.17c-5.62.3-7.48 6.32-10.29 5.51l-.24-.09-.22-.11a1.56 1.56 0 0 1-.35-.24.8.8 0 0 1-.17-.15 3.13 3.13 0 0 1-.38-.42l-.13-.18c-.1-.16-.21-.32-.3-.5a2.44 2.44 0 0 1-.14-.28 1.47 1.47 0 0 1-.1-.22c-.06-.12-.11-.25-.16-.38s-.13-.33-.19-.51-.1-.33-.15-.51-.07-.25-.1-.37l-.09-.35-2.41 1.22c-15.09 7.67-23.34 15.5-30 21.8-.81.77-1.58 1.51-2.33 2.2a4.06 4.06 0 0 1 1.77 0l.31.08.41.14h.1l.1.05.18.09c.09 0 .18.1.27.15l.34.22.26.2q.19.15.39.33a2.5 2.5 0 0 1 .23.23 2.39 2.39 0 0 1 .22.23c.11.13.23.27.34.42l.07.09.27.37.11.18c.06.08.1.16.15.24l.14.24q.5-.45 1-.93c6.33-6 14.2-13.49 28.47-20.74a172.15 172.15 0 0 1 16.06-7.36 7.47 7.47 0 0 0-.87-.33Zm-231.5-54.32-4.29 1.78.45.21a22.12 22.12 0 0 1 2.26 1.31l.12.08.13.09.26.18.15.11c.23.16.45.33.68.51l.08.06.59.51a3.58 3.58 0 0 1 .29.27c.1.09.19.19.28.28a3.58 3.58 0 0 1 .27.29 2.32 2.32 0 0 1 .26.3c.07.07.12.14.18.21l.74-.31A204 204 0 0 1 867 73.81v-.76a6.94 6.94 0 0 1 .12-.9 1.42 1.42 0 0 0 0-.2V71.78a10.13 10.13 0 0 1 .48-1.44l.17-.39c.07-.15.14-.3.22-.45s.15-.3.23-.45l.07-.13c.09-.17.19-.34.29-.51l.11-.18c.14-.23.28-.46.43-.69l.22-.33c.15-.23.3-.45.46-.66v-.07a182 182 0 0 0-25.59 9.06Zm136.6 20.59a3.37 3.37 0 0 1-.21-.31 3.45 3.45 0 0 1-.2-.32l-.06-.1c-.12-.21-.23-.42-.34-.64a1.11 1.11 0 0 1-.07-.16c-.12-.25-.22-.51-.32-.78s-.15-.45-.21-.68-.06-.2-.08-.3-.08-.35-.11-.52-.06-.39-.09-.58v-.64a.41.41 0 0 1 0-.11q-2.22 1.11-4.5 2.34c-4.41 2.39-9 5.11-13.93 8.07l-1.07.64q-4.51 2.7-8.29 5.23a146.77 146.77 0 0 0-21.1 16.89c-1.18 1.12-2.27 2.19-3.3 3.2-1.46 1.44-2.76 2.71-4 3.82l.83.4.8.41.48.26.61.34.43.26.34.2c.13.07.25.15.37.23.37.24.73.48 1.06.72a5.92 5.92 0 0 1 .48.35l.27.2c.88-.84 1.78-1.73 2.73-2.66 1.79-1.75 3.77-3.69 6.1-5.82a147.05 147.05 0 0 1 21.9-16.43c1.12-.71 2.29-1.43 3.5-2.15 6.88-4.12 12.86-7.71 18.55-10.57a7.85 7.85 0 0 1-.57-.79Zm129.49 26.43c-.1-.11-.2-.22-.29-.34a2.83 2.83 0 0 1-.2-.28l-.14-.23a.31.31 0 0 1-.05-.1v-.11a1.75 1.75 0 0 1-.12-.32 3.2 3.2 0 0 1-.1-.42 3.14 3.14 0 0 1 0-.75.68.68 0 0 1 0-.15 1.55 1.55 0 0 1 .06-.31 1.29 1.29 0 0 1 .08-.28 1.25 1.25 0 0 1 .09-.25 1.69 1.69 0 0 1 .12-.28l.14-.29a.35.35 0 0 1 0-.08 3.21 3.21 0 0 1 .19-.31 2.71 2.71 0 0 1 .24-.35c.09-.11.17-.22.26-.32a7.4 7.4 0 0 1 .66-.71c-1.18 0-2.35 0-3.52.1l-1-.08c-5.79-.6-9.08-1.65-15.87-4.49l.37.38c.41.43.81.84 1.19 1.25l.66.74a26.28 26.28 0 0 1 3 3.88c.09.15.18.29.26.44a7.79 7.79 0 0 1 .44.86 8.49 8.49 0 0 1 .35.85 2.47 2.47 0 0 1 .1.29l.06.21a2.14 2.14 0 0 1 .09.34 3.15 3.15 0 0 1 .09.42 3 3 0 0 1 .06.42v.52a3.75 3.75 0 0 1 0 .67 2.56 2.56 0 0 1 0 .39c0 .17 0 .33-.07.5a85.27 85.27 0 0 1 10.27-1.23c1.09.08 2.18.13 3.28.13l-.35-.29c-.14-.21-.25-.31-.35-.42Zm7.45-53.35a4.22 4.22 0 0 0-.18-.45v-.06a4.81 4.81 0 0 0-.22-.46c-.09-.18-.18-.35-.28-.52-.24-.42-.51-.84-.78-1.26l-.33-.5c-.16-.26-.33-.51-.48-.76-.05-.08-.1-.16-.14-.24s-.1-.16-.14-.24l-.13-.23a1.71 1.71 0 0 1-.12-.23c-.08-.15-.14-.29-.2-.43l-.06-.15-7.13 1.1c-3.06.48-6 1-8.78 1.42-8.78 1.41-16.3 2.8-22.78 4.1-5.94 1.18-11.09 2.29-15.68 3.32l-4.92 1.13c-2.3.53-4.45 1-6.5 1.53-3 .71-5.78 1.37-8.4 2a139.62 139.62 0 0 1-28.38 3.8l-1.95.06a117.93 117.93 0 0 1-26.51-2 84.61 84.61 0 0 1-8.59-2.14c-5.07-1.54-9.57-3.38-14.16-5.26-2.6-1.07-5.23-2.14-8-3.17-2-.75-4-1.48-6.22-2.16a106 106 0 0 0-17.71-4h-.13.09c1.94-1 3.91-2.19 6-3.42 1.54-.91 3.16-1.86 4.92-2.85l1.82-1a138.56 138.56 0 0 1 23.52-10.28c1.26-.42 2.5-.82 3.73-1.19s2.25-.67 3.36-1V43.33a1 1 0 0 1 0-.1l.09-.24a.88.88 0 0 0 .05-.15c.06-.15.11-.3.17-.44a5.89 5.89 0 0 1 .24-.58c.12-.27.24-.54.37-.81.25-.49.51-1 .8-1.43.1-.18.22-.36.33-.53s.2-.3.32-.45l.06-.09.19-.26.21-.28.27-.34.51-.59a.17.17 0 0 1 .06-.06l.27-.29a.8.8 0 0 1 .13-.13l.23-.23c.08-.09.18-.17.27-.26l.1-.09c-3.21.73-6.41 1.57-9.69 2.57-1.44.43-2.89.89-4.37 1.38a145 145 0 0 0-25.77 11.32c-2 1.14-3.91 2.23-5.67 3.26l-.75.44c-1.1.65-2.14 1.26-3.15 1.82-5 2.82-9.08 4.68-14.66 5.22.06.13.11.25.16.38a6.64 6.64 0 0 1 .28.86 4.05 4.05 0 0 1 .12.47c0 .12 0 .24.07.36s0 0 0 .06V66.53a2 2 0 0 1 0 .24v.09a1.55 1.55 0 0 1-.05.23c0 .16-.08.32-.13.47a7.62 7.62 0 0 1-.33.91c13.39.43 23 2.35 31 4.82 5.25 1.62 9.82 3.49 14.31 5.33A141 141 0 0 0 976.62 85c1.09.3 2.22.57 3.37.83 2.32.53 4.77 1 7.39 1.38-2.78 1.06-5.53 2.29-8.33 3.67a.41.41 0 0 0 0 .11v.64c0 .19 0 .38.09.58s.07.35.11.52.05.2.08.3.13.45.21.68.2.53.32.78a1.11 1.11 0 0 0 .07.16c.11.22.22.43.34.64l.06.1a3.45 3.45 0 0 0 .2.32 3.37 3.37 0 0 0 .21.31 7.85 7.85 0 0 0 .56.73c9-4.52 17.23-7.24 27.13-7.45a20.58 20.58 0 0 1 3.8.22c4.45.66 13.35 3.05 35.21 11.51 2.45 1 5.07 2 7.86 3.08l.45.18q3.42 1.35 6.43 2.57c9 3.64 15.42 6.41 20.39 8.54 3.37 1.44 6.07 2.6 8.43 3.54a141.19 141.19 0 0 0-31 11.66l.09.35c0 .12.06.24.1.37s.1.35.15.51.12.35.19.51.1.26.16.38a1.47 1.47 0 0 0 .1.22 2.44 2.44 0 0 0 .14.28c.09.18.2.34.3.5l.13.18a3.13 3.13 0 0 0 .38.42.8.8 0 0 0 .17.15 1.56 1.56 0 0 0 .35.24l.22.11.24.09c2.81.81 4.67-5.21 10.29-5.51h1.17a3.37 3.37 0 0 1 .36.06 1.86 1.86 0 0 1 .34.07 2.37 2.37 0 0 1 .36.09l.34.1a7.47 7.47 0 0 1 .92.39 111.73 111.73 0 0 1 20.79-6c0-.17 0-.33.07-.5a2.56 2.56 0 0 0 0-.39 3.75 3.75 0 0 0 0-.67v-.52a3 3 0 0 0-.06-.42 3.15 3.15 0 0 0-.09-.42 2.14 2.14 0 0 0-.09-.34l-.06-.21a2.47 2.47 0 0 0-.1-.29 8.49 8.49 0 0 0-.35-.85 7.79 7.79 0 0 0-.44-.86c-.08-.15-.17-.29-.26-.44a26.28 26.28 0 0 0-3-3.88l-.66-.74c-.38-.41-.78-.82-1.19-1.25l-.37-.38-5.68-2.42c-5-2.13-11.43-4.9-20.39-8.53-2.19-.89-4.53-1.83-7-2.82-13.61-5.41-23.23-8.91-30.16-11.17 7.54-1 14.25-2.63 22.75-4.65 11.74-2.78 26.88-6.36 52.57-10.56l3.53-.57q5.41-.87 11.45-1.76a2.78 2.78 0 0 0-.01-.26ZM1224 78.46l-3-1.72c-2.34-1.32-4.64-2.6-7-3.82a118.59 118.59 0 0 0-12.2-5.64 129.35 129.35 0 0 0 15.38-5.63c7.11-2.91 16-6.54 28.89-10.62 3.22-1 7.32-2.31 12-3.69l-.32-.43c-.09-.12-.18-.24-.25-.35s-.33-.49-.46-.73a7.31 7.31 0 0 1-.64-1.37 1.55 1.55 0 0 1-.07-.23.66.66 0 0 1-.06-.2c0-.11-.06-.23-.09-.34s0 0 0-.06v-.26a.19.19 0 0 0 0-.08.53.53 0 0 0 0-.13 4.07 4.07 0 0 1 0-.5 5 5 0 0 1 .1-1 2.49 2.49 0 0 1 .09-.37c-2.1.62-4.08 1.22-5.92 1.79-2.3.7-4.38 1.36-6.19 1.93s-3.58 1.15-5.25 1.7c-4.6 1.54-8.61 3-12.22 4.38-3.75 1.42-7 2.75-10 4l-1.85.75c-11.23 4.61-17.44 7.16-28.12 6.81a122.78 122.78 0 0 0-13.86-2.49c-5.26-1.94-9.53-4.86-14.61-8.36l-2.41-1.65c-2.76-1.88-5.81-3.89-9.38-5.93a116.84 116.84 0 0 0-20.07-9c-19.65-6.79-37.92-7.49-66.74-6.27l.15.2c.07.1.15.21.21.31v.06l.14.23a.93.93 0 0 1 0 .1 3.26 3.26 0 0 1 .2.43 3.16 3.16 0 0 1 .12.37 1.36 1.36 0 0 1 0 .17 1.86 1.86 0 0 1 0 .91c-.81 2.81-9.51 1.81-9.74 3.67a.44.44 0 0 0 0 .22c30.09-1.52 48.88-1.59 67.36 3.64q3 .84 6 1.87a107.66 107.66 0 0 1 19.83 9c4 2.33 7.34 4.65 10.52 6.83 1.09.75 2.17 1.5 3.25 2.22-10.61 0-20.93 1.25-32.15 2.83l-1.75.25q-4.85.69-9.3 1.36l.06.15c.06.14.12.28.2.43a1.71 1.71 0 0 0 .12.23l.13.23c0 .08.09.16.14.24s.09.16.14.24c.15.25.32.5.48.76l.33.5c.27.42.54.84.78 1.26.1.17.19.34.28.52a4.81 4.81 0 0 1 .22.46v.06a4.22 4.22 0 0 1 .18.45 2.78 2.78 0 0 1 .12.38l8.71-1.26c4.65-.66 9.15-1.26 13.57-1.72 5.51-.59 10.9-1 16.36-1a118.41 118.41 0 0 1 14.91.76c.7.24 1.41.46 2.15.67a51.74 51.74 0 0 0 12.21 1.9q2.64.65 5 1.35a101.87 101.87 0 0 1 13.55 5c2.47 1.11 4.84 2.29 7.17 3.53 2.52 1.33 5 2.72 7.55 4.16l1.78 1c3.58 2 7.28 4.14 11.43 6.33l.71.36a128.26 128.26 0 0 0-13 .08c-2.92.17-5.62.43-8.17.77l.76.65 1.19 1 1.07.92c1.31 1.12 2.49 2.16 3.53 3.15l2-.13a123.78 123.78 0 0 1 30.36 2l1.39.6a1 1 0 0 1 0-.17 3.55 3.55 0 0 1 0-.46 5.27 5.27 0 0 1 0-.56 3.87 3.87 0 0 1 .13-.59 4.3 4.3 0 0 1 .2-.57 5.1 5.1 0 0 1 .29-.57 4.92 4.92 0 0 1 .37-.56 2.47 2.47 0 0 1 .21-.27 2.61 2.61 0 0 1 .22-.27 2 2 0 0 1 .24-.26c.12-.13.25-.26.38-.38s.35-.32.54-.47l.29-.23.3-.21c-6.69-2.81-13.41-6-20-9.45-3.92-2.08-7.58-4.16-11.17-6.17Zm159.38-18.87c-3.16-1.77-6.16-3.61-9.08-5.48-1.89-1.21-3.74-2.42-5.59-3.63-10-6.51-19.6-12.78-32.12-16.39l-.15.27a2.53 2.53 0 0 1-.13.22v.07l-.06.07a2.19 2.19 0 0 1-.2.25l-.26.28c-.12.12-.25.23-.39.35s-.28.22-.43.33l-.43.29-.55.31-.54.28-.28.13-.29.13c-.39.17-.79.33-1.21.48l-.64.23c-.64.22-1.31.43-2 .63l-.67.2a68.88 68.88 0 0 1 14.45 4.39 89.37 89.37 0 0 1 9.55 4.75c4.34 2.46 8.54 5.2 12.9 8.05 1.86 1.22 3.76 2.46 5.71 3.7 2.45 1.56 5 3.13 7.64 4.66a114.1 114.1 0 0 0 26.55 11.37c.31-.36.61-.7.92-1s.47-.52.71-.76l.4-.4c.27-.26.54-.5.81-.73l.59-.47.24-.17c.12-.08.24-.16.37-.23l.42-.23a5.12 5.12 0 0 1 .53-.25h.33a3 3 0 0 1 .4-.12 5.65 5.65 0 0 1 .93-.16h.43a104.73 104.73 0 0 1-28.82-11.42Zm-265.67 9.62a4.22 4.22 0 0 0-.18-.45v-.06a4.81 4.81 0 0 0-.22-.46c-.09-.18-.18-.35-.28-.52-.24-.42-.51-.84-.78-1.26l-.33-.5c-.16-.26-.33-.51-.48-.76-.05-.08-.1-.16-.14-.24s-.1-.16-.14-.24l-.13-.23a1.71 1.71 0 0 1-.12-.23c-.08-.15-.14-.29-.2-.43l-.06-.15-7.13 1.1c-3.06.48-6 1-8.78 1.42-8.74 1.41-16.26 2.8-22.74 4.1-5.94 1.18-11.09 2.29-15.68 3.32l-4.92 1.13c-2.3.53-4.45 1-6.5 1.53-3 .71-5.78 1.37-8.4 2a139.62 139.62 0 0 1-28.38 3.8l-1.95.06a117.93 117.93 0 0 1-26.51-2 84.61 84.61 0 0 1-8.59-2.14c-5.07-1.54-9.57-3.38-14.16-5.26-2.6-1.07-5.23-2.14-8-3.17-2-.75-4-1.48-6.22-2.16a106 106 0 0 0-17.71-4h-.13.09c1.94-1 3.91-2.19 6-3.42 1.54-.91 3.16-1.86 4.92-2.85l1.82-1a138.56 138.56 0 0 1 23.52-10.28c1.26-.42 2.5-.82 3.73-1.19s2.25-.67 3.36-1V43.33a1 1 0 0 1 0-.1l.09-.24a.88.88 0 0 0 .05-.15c.06-.15.11-.3.17-.44a5.89 5.89 0 0 1 .24-.58c.12-.27.24-.54.37-.81.25-.49.51-1 .8-1.43.1-.18.22-.36.33-.53s.2-.3.32-.45l.06-.09.19-.26.21-.28.27-.34.51-.59a.17.17 0 0 1 .06-.06l.27-.29a.8.8 0 0 1 .13-.13 2.49 2.49 0 0 1 .23-.23c.08-.09.18-.17.27-.26l.1-.09c-3.21.73-6.41 1.57-9.69 2.57-1.44.43-2.89.89-4.37 1.38a145 145 0 0 0-25.77 11.32c-2 1.14-3.91 2.23-5.67 3.26l-.75.44c-1.1.65-2.14 1.26-3.15 1.82-5 2.82-9.08 4.68-14.66 5.22.06.13.11.25.16.38a6.64 6.64 0 0 1 .28.86 4.05 4.05 0 0 1 .12.47c0 .12 0 .24.07.36s0 0 0 .06V66.53a2 2 0 0 1 0 .24v.09a1.55 1.55 0 0 1-.05.23c0 .16-.08.32-.13.47a7.62 7.62 0 0 1-.33.91c13.39.43 23 2.35 31 4.82 5.25 1.62 9.82 3.49 14.31 5.33A141 141 0 0 0 976.62 85c1.09.3 2.22.57 3.37.83 2.32.53 4.77 1 7.39 1.38-2.78 1.06-5.53 2.29-8.33 3.67a.41.41 0 0 0 0 .11v.64c0 .19 0 .38.09.58s.07.35.11.52.05.2.08.3.13.45.21.68.2.53.32.78a1.11 1.11 0 0 0 .07.16c.11.22.22.43.34.64l.06.1a3.45 3.45 0 0 0 .2.32 3.37 3.37 0 0 0 .21.31 7.85 7.85 0 0 0 .56.73c9-4.52 17.23-7.24 27.13-7.45a20.58 20.58 0 0 1 3.8.22c4.45.66 13.35 3.05 35.21 11.51 2.45 1 5.07 2 7.86 3.08l.45.18q3.42 1.35 6.43 2.57c9 3.64 15.42 6.41 20.39 8.54 3.37 1.44 6.07 2.6 8.43 3.54a141.19 141.19 0 0 0-31 11.66l.09.35c0 .12.06.24.1.37s.1.35.15.51.12.35.19.51.1.26.16.38a1.47 1.47 0 0 0 .1.22 2.44 2.44 0 0 0 .14.28c.09.18.2.34.3.5l.13.18a3.13 3.13 0 0 0 .38.42.8.8 0 0 0 .17.15 1.56 1.56 0 0 0 .35.24l.22.11.24.09c2.81.81 4.67-5.21 10.29-5.51h1.17a3.37 3.37 0 0 1 .36.06 1.86 1.86 0 0 1 .34.07 2.37 2.37 0 0 1 .36.09l.34.1a7.47 7.47 0 0 1 .92.39 111.73 111.73 0 0 1 20.79-6c0-.17 0-.33.07-.5a2.56 2.56 0 0 0 0-.39 3.75 3.75 0 0 0 0-.67v-.52a3 3 0 0 0-.06-.42 3.15 3.15 0 0 0-.09-.42 2.14 2.14 0 0 0-.09-.34l-.06-.21a2.47 2.47 0 0 0-.1-.29 8.49 8.49 0 0 0-.35-.85 7.79 7.79 0 0 0-.44-.86c-.08-.15-.17-.29-.26-.44a26.28 26.28 0 0 0-3-3.88l-.66-.74c-.38-.41-.78-.82-1.19-1.25l-.37-.38-5.68-2.42c-5-2.13-11.43-4.9-20.39-8.53-2.19-.89-4.53-1.83-7-2.82-13.61-5.41-23.23-8.91-30.16-11.17 7.54-1 14.25-2.63 22.75-4.65 11.74-2.78 26.88-6.36 52.57-10.56l3.53-.57q5.41-.87 11.45-1.76a2.78 2.78 0 0 0-.01-.26ZM1224 78.46l-3-1.72c-2.34-1.32-4.64-2.6-7-3.82a118.59 118.59 0 0 0-12.2-5.64 129.35 129.35 0 0 0 15.38-5.63c7.11-2.91 16-6.54 28.89-10.62 3.22-1 7.32-2.31 12-3.69l-.32-.43c-.09-.12-.18-.24-.25-.35s-.33-.49-.46-.73a7.31 7.31 0 0 1-.64-1.37 1.55 1.55 0 0 1-.07-.23.66.66 0 0 1-.06-.2c0-.11-.06-.23-.09-.34s0 0 0-.06v-.26a.19.19 0 0 0 0-.08.53.53 0 0 0 0-.13 4.07 4.07 0 0 1 0-.5 5 5 0 0 1 .1-1 2.49 2.49 0 0 1 .09-.37c-2.1.62-4.08 1.22-5.92 1.79-2.3.7-4.38 1.36-6.19 1.93s-3.58 1.15-5.25 1.7c-4.6 1.54-8.61 3-12.22 4.38-3.75 1.42-7 2.75-10 4l-1.85.75c-11.23 4.61-17.44 7.16-28.12 6.81a122.78 122.78 0 0 0-13.86-2.49c-5.26-1.94-9.53-4.86-14.61-8.36l-2.41-1.65c-2.76-1.88-5.81-3.89-9.38-5.93a116.84 116.84 0 0 0-20.07-9c-19.65-6.79-37.92-7.49-66.74-6.27l.15.2c.07.1.15.21.21.31v.06l.14.23a.93.93 0 0 1 0 .1 3.26 3.26 0 0 1 .2.43 3.16 3.16 0 0 1 .12.37 1.36 1.36 0 0 1 0 .17 1.86 1.86 0 0 1 0 .91c-.81 2.81-9.51 1.81-9.74 3.67a.44.44 0 0 0 0 .22c30.09-1.52 48.88-1.59 67.36 3.64q3 .84 6 1.87a107.66 107.66 0 0 1 19.83 9c4 2.33 7.34 4.65 10.52 6.83 1.09.75 2.17 1.5 3.25 2.22-10.61 0-20.93 1.25-32.15 2.83l-1.75.25q-4.85.69-9.3 1.36l.06.15c.06.14.12.28.2.43a1.71 1.71 0 0 0 .12.23l.13.23c0 .08.09.16.14.24s.09.16.14.24c.15.25.32.5.48.76l.33.5c.27.42.54.84.78 1.26.1.17.19.34.28.52a4.81 4.81 0 0 1 .22.46v.06a4.22 4.22 0 0 1 .18.45 2.78 2.78 0 0 1 .12.38l8.71-1.26c4.65-.66 9.15-1.26 13.57-1.72 5.51-.59 10.9-1 16.36-1a118.41 118.41 0 0 1 14.91.76c.7.24 1.41.46 2.15.67a51.74 51.74 0 0 0 12.21 1.9q2.64.65 5 1.35a101.87 101.87 0 0 1 13.55 5c2.47 1.11 4.84 2.29 7.17 3.53 2.52 1.33 5 2.72 7.55 4.16l1.78 1c3.58 2 7.28 4.14 11.43 6.33l.71.36a128.26 128.26 0 0 0-13 .08c-2.92.17-5.62.43-8.17.77l.76.65 1.19 1 1.07.92c1.31 1.12 2.49 2.16 3.53 3.15l2-.13a123.78 123.78 0 0 1 30.36 2l1.39.6a1 1 0 0 1 0-.17 3.55 3.55 0 0 1 0-.46 5.27 5.27 0 0 1 0-.56 3.87 3.87 0 0 1 .13-.59 4.3 4.3 0 0 1 .2-.57 5.1 5.1 0 0 1 .29-.57 4.92 4.92 0 0 1 .37-.56 2.47 2.47 0 0 1 .21-.27 2.61 2.61 0 0 1 .22-.27 2 2 0 0 1 .24-.26 4.54 4.54 0 0 1 .38-.38c.17-.16.35-.32.54-.47l.29-.23.3-.21c-6.69-2.81-13.41-6-20-9.45-3.92-2.08-7.58-4.16-11.17-6.17Zm159.38-18.87c-3.16-1.77-6.16-3.61-9.08-5.48-1.89-1.21-3.74-2.42-5.59-3.63-10-6.51-19.6-12.78-32.12-16.39l-.15.27a2.53 2.53 0 0 1-.13.22v.07l-.06.07a2.19 2.19 0 0 1-.2.25l-.26.28c-.12.12-.25.23-.39.35s-.28.22-.43.33l-.43.29-.55.31-.54.28-.28.13-.29.13c-.39.17-.79.33-1.21.48l-.64.23c-.64.22-1.31.43-2 .63l-.67.2a68.88 68.88 0 0 1 14.45 4.39 89.37 89.37 0 0 1 9.55 4.75c4.34 2.46 8.54 5.2 12.9 8.05 1.86 1.22 3.76 2.46 5.71 3.7 2.45 1.56 5 3.13 7.64 4.66a114.1 114.1 0 0 0 26.55 11.37c.31-.36.61-.7.92-1s.47-.52.71-.76l.4-.4c.27-.26.54-.5.81-.73s.39-.33.59-.47l.24-.17c.12-.08.24-.16.37-.23l.42-.23a5.12 5.12 0 0 1 .53-.25h.33a3 3 0 0 1 .4-.12 5.65 5.65 0 0 1 .93-.16h.43a104.73 104.73 0 0 1-28.82-11.42Zm-265.67 9.62a4.22 4.22 0 0 0-.18-.45v-.06a4.81 4.81 0 0 0-.22-.46c-.09-.18-.18-.35-.28-.52-.24-.42-.51-.84-.78-1.26l-.33-.5c-.16-.26-.33-.51-.48-.76-.05-.08-.1-.16-.14-.24s-.1-.16-.14-.24l-.13-.23a1.71 1.71 0 0 1-.12-.23c-.08-.15-.14-.29-.2-.43l-.06-.15-7.13 1.1c-3.06.48-6 1-8.78 1.42-8.74 1.41-16.26 2.8-22.74 4.1-5.94 1.18-11.09 2.29-15.68 3.32l-4.92 1.13c-2.3.53-4.45 1-6.5 1.53-3 .71-5.78 1.37-8.4 2a139.62 139.62 0 0 1-28.38 3.8l-1.95.06a117.93 117.93 0 0 1-26.51-2 84.61 84.61 0 0 1-8.59-2.14c-5.07-1.54-9.57-3.38-14.16-5.26-2.6-1.07-5.23-2.14-8-3.17-2-.75-4-1.48-6.22-2.16a106 106 0 0 0-17.71-4h-.13.09c1.94-1 3.91-2.19 6-3.42 1.54-.91 3.16-1.86 4.92-2.85l1.82-1a138.56 138.56 0 0 1 23.52-10.28c1.26-.42 2.5-.82 3.73-1.19s2.25-.67 3.36-1V43.33a1 1 0 0 1 0-.1l.09-.24a.88.88 0 0 0 .05-.15c.06-.15.11-.3.17-.44a5.89 5.89 0 0 1 .24-.58c.12-.27.24-.54.37-.81.25-.49.51-1 .8-1.43.1-.18.22-.36.33-.53s.2-.3.32-.45l.06-.09.19-.26.21-.28.27-.34.51-.59a.17.17 0 0 1 .06-.06l.27-.29a.8.8 0 0 1 .13-.13 2.49 2.49 0 0 1 .23-.23c.08-.09.18-.17.27-.26l.1-.09c-3.21.73-6.41 1.57-9.69 2.57-1.44.43-2.89.89-4.37 1.38a145 145 0 0 0-25.77 11.32c-2 1.14-3.91 2.23-5.67 3.26l-.75.44c-1.1.65-2.14 1.26-3.15 1.82-5 2.82-9.08 4.68-14.66 5.22.06.13.11.25.16.38a6.64 6.64 0 0 1 .28.86 4.05 4.05 0 0 1 .12.47c0 .12 0 .24.07.36s0 0 0 .06V66.53a2 2 0 0 1 0 .24v.09a1.55 1.55 0 0 1-.05.23c0 .16-.08.32-.13.47a7.62 7.62 0 0 1-.33.91c13.39.43 23 2.35 31 4.82 5.25 1.62 9.82 3.49 14.31 5.33A141 141 0 0 0 976.62 85c1.09.3 2.22.57 3.37.83 2.32.53 4.77 1 7.39 1.38-2.78 1.06-5.53 2.29-8.33 3.67a.41.41 0 0 0 0 .11v.64c0 .19 0 .38.09.58s.07.35.11.52.05.2.08.3.13.45.21.68.2.53.32.78a1.11 1.11 0 0 0 .07.16c.11.22.22.43.34.64l.06.1a3.45 3.45 0 0 0 .2.32 3.37 3.37 0 0 0 .21.31 7.85 7.85 0 0 0 .56.73c9-4.52 17.23-7.24 27.13-7.45a20.58 20.58 0 0 1 3.8.22c4.45.66 13.35 3.05 35.21 11.51 2.45 1 5.07 2 7.86 3.08l.45.18q3.42 1.35 6.43 2.57c9 3.64 15.42 6.41 20.39 8.54 3.37 1.44 6.07 2.6 8.43 3.54a141.19 141.19 0 0 0-31 11.66l.09.35c0 .12.06.24.1.37s.1.35.15.51.12.35.19.51.1.26.16.38a1.47 1.47 0 0 0 .1.22 2.44 2.44 0 0 0 .14.28c.09.18.2.34.3.5l.13.18a3.13 3.13 0 0 0 .38.42.8.8 0 0 0 .17.15 1.56 1.56 0 0 0 .35.24l.22.11.24.09c2.81.81 4.67-5.21 10.29-5.51h1.17a3.37 3.37 0 0 1 .36.06 1.86 1.86 0 0 1 .34.07 2.37 2.37 0 0 1 .36.09l.34.1a7.47 7.47 0 0 1 .92.39 111.73 111.73 0 0 1 20.79-6c0-.17 0-.33.07-.5a2.56 2.56 0 0 0 0-.39 3.75 3.75 0 0 0 0-.67v-.52a3 3 0 0 0-.06-.42 3.15 3.15 0 0 0-.09-.42 2.14 2.14 0 0 0-.09-.34l-.06-.21a2.47 2.47 0 0 0-.1-.29 8.49 8.49 0 0 0-.35-.85 7.79 7.79 0 0 0-.44-.86c-.08-.15-.17-.29-.26-.44a26.28 26.28 0 0 0-3-3.88l-.66-.74c-.38-.41-.78-.82-1.19-1.25l-.37-.38-5.68-2.42c-5-2.13-11.43-4.9-20.39-8.53-2.19-.89-4.53-1.83-7-2.82-13.61-5.41-23.23-8.91-30.16-11.17 7.54-1 14.25-2.63 22.75-4.65 11.74-2.78 26.88-6.36 52.57-10.56l3.53-.57q5.41-.87 11.45-1.76a2.78 2.78 0 0 0-.01-.26ZM1224 78.46l-3-1.72c-2.34-1.32-4.64-2.6-7-3.82a118.59 118.59 0 0 0-12.2-5.64 129.35 129.35 0 0 0 15.38-5.63c7.11-2.91 16-6.54 28.89-10.62 3.22-1 7.32-2.31 12-3.69l-.32-.43c-.09-.12-.18-.24-.25-.35s-.33-.49-.46-.73a7.31 7.31 0 0 1-.64-1.37 1.55 1.55 0 0 1-.07-.23.66.66 0 0 1-.06-.2c0-.11-.06-.23-.09-.34s0 0 0-.06v-.26a.19.19 0 0 0 0-.08.53.53 0 0 0 0-.13 4.07 4.07 0 0 1 0-.5 5 5 0 0 1 .1-1 2.49 2.49 0 0 1 .09-.37c-2.1.62-4.08 1.22-5.92 1.79-2.3.7-4.38 1.36-6.19 1.93s-3.58 1.15-5.25 1.7c-4.6 1.54-8.61 3-12.22 4.38-3.75 1.42-7 2.75-10 4l-1.85.75c-11.23 4.61-17.44 7.16-28.12 6.81a122.78 122.78 0 0 0-13.86-2.49c-5.26-1.94-9.53-4.86-14.61-8.36l-2.41-1.65c-2.76-1.88-5.81-3.89-9.38-5.93a116.84 116.84 0 0 0-20.07-9c-19.65-6.79-37.92-7.49-66.74-6.27l.15.2c.07.1.15.21.21.31v.06l.14.23a.93.93 0 0 1 0 .1 3.26 3.26 0 0 1 .2.43 3.16 3.16 0 0 1 .12.37 1.36 1.36 0 0 1 0 .17 1.86 1.86 0 0 1 0 .91c-.81 2.81-9.51 1.81-9.74 3.67a.44.44 0 0 0 0 .22c30.09-1.52 48.88-1.59 67.36 3.64q3 .84 6 1.87a107.66 107.66 0 0 1 19.83 9c4 2.33 7.34 4.65 10.52 6.83 1.09.75 2.17 1.5 3.25 2.22-10.61 0-20.93 1.25-32.15 2.83l-1.75.25q-4.85.69-9.3 1.36l.06.15c.06.14.12.28.2.43a1.71 1.71 0 0 0 .12.23l.13.23c0 .08.09.16.14.24s.09.16.14.24c.15.25.32.5.48.76l.33.5c.27.42.54.84.78 1.26.1.17.19.34.28.52a4.81 4.81 0 0 1 .22.46v.06a4.22 4.22 0 0 1 .18.45 2.78 2.78 0 0 1 .12.38l8.71-1.26c4.65-.66 9.15-1.26 13.57-1.72 5.51-.59 10.9-1 16.36-1a118.41 118.41 0 0 1 14.91.76c.7.24 1.41.46 2.15.67a51.74 51.74 0 0 0 12.21 1.9q2.64.65 5 1.35a101.87 101.87 0 0 1 13.55 5c2.47 1.11 4.84 2.29 7.17 3.53 2.52 1.33 5 2.72 7.55 4.16l1.78 1c3.58 2 7.28 4.14 11.43 6.33l.71.36a128.26 128.26 0 0 0-13 .08c-2.92.17-5.62.43-8.17.77l.76.65 1.19 1 1.07.92c1.31 1.12 2.49 2.16 3.53 3.15l2-.13a123.78 123.78 0 0 1 30.36 2l1.39.6a1 1 0 0 1 0-.17 3.55 3.55 0 0 1 0-.46 5.27 5.27 0 0 1 0-.56 3.87 3.87 0 0 1 .13-.59 4.3 4.3 0 0 1 .2-.57 5.1 5.1 0 0 1 .29-.57 4.92 4.92 0 0 1 .37-.56 2.47 2.47 0 0 1 .21-.27 2.61 2.61 0 0 1 .22-.27 2 2 0 0 1 .24-.26 4.54 4.54 0 0 1 .38-.38c.17-.16.35-.32.54-.47l.29-.23.3-.21c-6.69-2.81-13.41-6-20-9.45-3.92-2.08-7.58-4.16-11.17-6.17Zm159.38-18.87c-3.16-1.77-6.16-3.61-9.08-5.48-1.89-1.21-3.74-2.42-5.59-3.63-10-6.51-19.6-12.78-32.12-16.39l-.15.27a2.53 2.53 0 0 1-.13.22v.07l-.06.07a2.19 2.19 0 0 1-.2.25l-.26.28c-.12.12-.25.23-.39.35s-.28.22-.43.33l-.43.29-.55.31-.54.28-.28.13-.29.13c-.39.17-.79.33-1.21.48l-.64.23c-.64.22-1.31.43-2 .63l-.67.2a68.88 68.88 0 0 1 14.45 4.39 89.37 89.37 0 0 1 9.55 4.75c4.34 2.46 8.54 5.2 12.9 8.05 1.86 1.22 3.76 2.46 5.71 3.7 2.45 1.56 5 3.13 7.64 4.66a114.1 114.1 0 0 0 26.55 11.37c.31-.36.61-.7.92-1s.47-.52.71-.76l.4-.4c.27-.26.54-.5.81-.73s.39-.33.59-.47l.24-.17c.12-.08.24-.16.37-.23l.42-.23a5.12 5.12 0 0 1 .53-.25h.33a3 3 0 0 1 .4-.12 5.65 5.65 0 0 1 .93-.16h.43a104.73 104.73 0 0 1-28.82-11.42Zm0 0c-3.16-1.77-6.16-3.61-9.08-5.48-1.89-1.21-3.74-2.42-5.59-3.63-10-6.51-19.6-12.78-32.12-16.39l-.15.27a2.53 2.53 0 0 1-.13.22v.07l-.06.07a2.19 2.19 0 0 1-.2.25l-.26.28c-.12.12-.25.23-.39.35s-.28.22-.43.33l-.43.29-.55.31-.54.28-.28.13-.29.13c-.39.17-.79.33-1.21.48l-.64.23c-.64.22-1.31.43-2 .63l-.67.2a68.88 68.88 0 0 1 14.45 4.39 89.37 89.37 0 0 1 9.55 4.75c4.34 2.46 8.54 5.2 12.9 8.05 1.86 1.22 3.76 2.46 5.71 3.7 2.45 1.56 5 3.13 7.64 4.66a114.1 114.1 0 0 0 26.55 11.37c.31-.36.61-.7.92-1s.47-.52.71-.76l.4-.4c.27-.26.54-.5.81-.73s.39-.33.59-.47l.24-.17c.12-.08.24-.16.37-.23l.42-.23a5.12 5.12 0 0 1 .53-.25h.33a3 3 0 0 1 .4-.12 5.65 5.65 0 0 1 .93-.16h.43a104.73 104.73 0 0 1-28.82-11.42ZM1224 78.46l-3-1.72c-2.34-1.32-4.64-2.6-7-3.82a118.59 118.59 0 0 0-12.2-5.64 129.35 129.35 0 0 0 15.38-5.63c7.11-2.91 16-6.54 28.89-10.62 3.22-1 7.32-2.31 12-3.69l-.32-.43c-.09-.12-.18-.24-.25-.35s-.33-.49-.46-.73a7.31 7.31 0 0 1-.64-1.37 1.55 1.55 0 0 1-.07-.23.66.66 0 0 1-.06-.2c0-.11-.06-.23-.09-.34s0 0 0-.06v-.26a.19.19 0 0 0 0-.08.53.53 0 0 0 0-.13 4.07 4.07 0 0 1 0-.5 5 5 0 0 1 .1-1 2.49 2.49 0 0 1 .09-.37c-2.1.62-4.08 1.22-5.92 1.79-2.3.7-4.38 1.36-6.19 1.93s-3.58 1.15-5.25 1.7c-4.6 1.54-8.61 3-12.22 4.38-3.75 1.42-7 2.75-10 4l-1.85.75c-11.23 4.61-17.44 7.16-28.12 6.81a122.78 122.78 0 0 0-13.86-2.49c-5.26-1.94-9.53-4.86-14.61-8.36l-2.41-1.65c-2.76-1.88-5.81-3.89-9.38-5.93a116.84 116.84 0 0 0-20.07-9c-19.65-6.79-37.92-7.49-66.74-6.27l.15.2c.07.1.15.21.21.31v.06l.14.23a.93.93 0 0 1 0 .1 3.26 3.26 0 0 1 .2.43 3.16 3.16 0 0 1 .12.37 1.36 1.36 0 0 1 0 .17 1.86 1.86 0 0 1 0 .91c-.81 2.81-9.51 1.81-9.74 3.67a.44.44 0 0 0 0 .22c30.09-1.52 48.88-1.59 67.36 3.64q3 .84 6 1.87a107.66 107.66 0 0 1 19.83 9c4 2.33 7.34 4.65 10.52 6.83 1.09.75 2.17 1.5 3.25 2.22-10.61 0-20.93 1.25-32.15 2.83l-1.75.25q-4.85.69-9.3 1.36l.06.15c.06.14.12.28.2.43a1.71 1.71 0 0 0 .12.23l.13.23c0 .08.09.16.14.24s.09.16.14.24c.15.25.32.5.48.76l.33.5c.27.42.54.84.78 1.26.1.17.19.34.28.52a4.81 4.81 0 0 1 .22.46v.06a4.22 4.22 0 0 1 .18.45 2.78 2.78 0 0 1 .12.38l8.71-1.26c4.65-.66 9.15-1.26 13.57-1.72 5.51-.59 10.9-1 16.36-1a118.41 118.41 0 0 1 14.91.76c.7.24 1.41.46 2.15.67a51.74 51.74 0 0 0 12.21 1.9q2.64.65 5 1.35a101.87 101.87 0 0 1 13.55 5c2.47 1.11 4.84 2.29 7.17 3.53 2.52 1.33 5 2.72 7.55 4.16l1.78 1c3.58 2 7.28 4.14 11.43 6.33l.71.36a128.26 128.26 0 0 0-13 .08c-2.92.17-5.62.43-8.17.77l.76.65 1.19 1 1.07.92c1.31 1.12 2.49 2.16 3.53 3.15l2-.13a123.78 123.78 0 0 1 30.36 2l1.39.6a1 1 0 0 1 0-.17 3.55 3.55 0 0 1 0-.46 5.27 5.27 0 0 1 0-.56 3.87 3.87 0 0 1 .13-.59 4.3 4.3 0 0 1 .2-.57 5.1 5.1 0 0 1 .29-.57 4.92 4.92 0 0 1 .37-.56 2.47 2.47 0 0 1 .21-.27 2.61 2.61 0 0 1 .22-.27 2 2 0 0 1 .24-.26 4.54 4.54 0 0 1 .38-.38c.17-.16.35-.32.54-.47l.29-.23.3-.21c-6.69-2.81-13.41-6-20-9.45-3.92-2.08-7.58-4.16-11.17-6.17Zm-106.29-9.25a4.22 4.22 0 0 0-.18-.45v-.06a4.81 4.81 0 0 0-.22-.46c-.09-.18-.18-.35-.28-.52-.24-.42-.51-.84-.78-1.26l-.33-.5c-.16-.26-.33-.51-.48-.76-.05-.08-.1-.16-.14-.24s-.1-.16-.14-.24l-.13-.23a1.71 1.71 0 0 1-.12-.23c-.08-.15-.14-.29-.2-.43l-.06-.15-7.13 1.1c-3.06.48-6 1-8.78 1.42-8.74 1.41-16.26 2.8-22.74 4.1-5.94 1.18-11.09 2.29-15.68 3.32l-4.92 1.13c-2.3.53-4.45 1-6.5 1.53-3 .71-5.78 1.37-8.4 2a139.62 139.62 0 0 1-28.38 3.8l-1.95.06a117.93 117.93 0 0 1-26.51-2 84.61 84.61 0 0 1-8.59-2.14c-5.07-1.54-9.57-3.38-14.16-5.26-2.6-1.07-5.23-2.14-8-3.17-2-.75-4-1.48-6.22-2.16a106 106 0 0 0-17.71-4h-.13.09c1.94-1 3.91-2.19 6-3.42 1.54-.91 3.16-1.86 4.92-2.85l1.82-1a138.56 138.56 0 0 1 23.52-10.28c1.26-.42 2.5-.82 3.73-1.19s2.25-.67 3.36-1V43.33a1 1 0 0 1 0-.1l.09-.24a.88.88 0 0 0 .05-.15c.06-.15.11-.3.17-.44a5.89 5.89 0 0 1 .24-.58c.12-.27.24-.54.37-.81.25-.49.51-1 .8-1.43.1-.18.22-.36.33-.53s.2-.3.32-.45l.06-.09.19-.26.21-.28.27-.34.51-.59a.17.17 0 0 1 .06-.06l.27-.29a.8.8 0 0 1 .13-.13 2.49 2.49 0 0 1 .23-.23c.08-.09.18-.17.27-.26l.1-.09c-3.21.73-6.41 1.57-9.69 2.57-1.44.43-2.89.89-4.37 1.38a145 145 0 0 0-25.77 11.32c-2 1.14-3.91 2.23-5.67 3.26l-.75.44c-1.1.65-2.14 1.26-3.15 1.82-5 2.82-9.08 4.68-14.66 5.22.06.13.11.25.16.38a6.64 6.64 0 0 1 .28.86 4.05 4.05 0 0 1 .12.47c0 .12 0 .24.07.36s0 0 0 .06V66.53a2 2 0 0 1 0 .24v.09a1.55 1.55 0 0 1-.05.23c0 .16-.08.32-.13.47a7.62 7.62 0 0 1-.33.91c13.39.43 23 2.35 31 4.82 5.25 1.62 9.82 3.49 14.31 5.33A141 141 0 0 0 976.62 85c1.09.3 2.22.57 3.37.83 2.32.53 4.77 1 7.39 1.38-2.78 1.06-5.53 2.29-8.33 3.67a.41.41 0 0 0 0 .11v.64c0 .19 0 .38.09.58s.07.35.11.52.05.2.08.3.13.45.21.68.2.53.32.78a1.11 1.11 0 0 0 .07.16c.11.22.22.43.34.64l.06.1a3.45 3.45 0 0 0 .2.32 3.37 3.37 0 0 0 .21.31 7.85 7.85 0 0 0 .56.73c9-4.52 17.23-7.24 27.13-7.45a20.58 20.58 0 0 1 3.8.22c4.45.66 13.35 3.05 35.21 11.51 2.45 1 5.07 2 7.86 3.08l.45.18q3.42 1.35 6.43 2.57c9 3.64 15.42 6.41 20.39 8.54 3.37 1.44 6.07 2.6 8.43 3.54a141.19 141.19 0 0 0-31 11.66l.09.35c0 .12.06.24.1.37s.1.35.15.51.12.35.19.51.1.26.16.38a1.47 1.47 0 0 0 .1.22 2.44 2.44 0 0 0 .14.28c.09.18.2.34.3.5l.13.18a3.13 3.13 0 0 0 .38.42.8.8 0 0 0 .17.15 1.56 1.56 0 0 0 .35.24l.22.11.24.09c2.81.81 4.67-5.21 10.29-5.51h1.17a3.37 3.37 0 0 1 .36.06 1.86 1.86 0 0 1 .34.07 2.37 2.37 0 0 1 .36.09l.34.1a7.47 7.47 0 0 1 .92.39 111.73 111.73 0 0 1 20.79-6c0-.17 0-.33.07-.5a2.56 2.56 0 0 0 0-.39 3.75 3.75 0 0 0 0-.67v-.52a3 3 0 0 0-.06-.42 3.15 3.15 0 0 0-.09-.42 2.14 2.14 0 0 0-.09-.34l-.06-.21a2.47 2.47 0 0 0-.1-.29 8.49 8.49 0 0 0-.35-.85 7.79 7.79 0 0 0-.44-.86c-.08-.15-.17-.29-.26-.44a26.28 26.28 0 0 0-3-3.88l-.66-.74c-.38-.41-.78-.82-1.19-1.25l-.37-.38-5.68-2.42c-5-2.13-11.43-4.9-20.39-8.53-2.19-.89-4.53-1.83-7-2.82-13.61-5.41-23.23-8.91-30.16-11.17 7.54-1 14.25-2.63 22.75-4.65 11.74-2.78 26.88-6.36 52.57-10.56l3.53-.57q5.41-.87 11.45-1.76a2.78 2.78 0 0 0-.01-.26Zm265.67-9.62c-3.16-1.77-6.16-3.61-9.08-5.48-1.89-1.21-3.74-2.42-5.59-3.63-10-6.51-19.6-12.78-32.12-16.39l-.15.27a2.53 2.53 0 0 1-.13.22v.07l-.06.07a2.19 2.19 0 0 1-.2.25l-.26.28c-.12.12-.25.23-.39.35s-.28.22-.43.33l-.43.29-.55.31-.54.28-.28.13-.29.13c-.39.17-.79.33-1.21.48l-.64.23c-.64.22-1.31.43-2 .63l-.67.2a68.88 68.88 0 0 1 14.45 4.39 89.37 89.37 0 0 1 9.55 4.75c4.34 2.46 8.54 5.2 12.9 8.05 1.86 1.22 3.76 2.46 5.71 3.7 2.45 1.56 5 3.13 7.64 4.66a114.1 114.1 0 0 0 26.55 11.37c.31-.36.61-.7.92-1s.47-.52.71-.76l.4-.4c.27-.26.54-.5.81-.73s.39-.33.59-.47l.24-.17c.12-.08.24-.16.37-.23l.42-.23a5.12 5.12 0 0 1 .53-.25h.33a3 3 0 0 1 .4-.12 5.65 5.65 0 0 1 .93-.16h.43a104.73 104.73 0 0 1-28.82-11.42ZM1224 78.46l-3-1.72c-2.34-1.32-4.64-2.6-7-3.82a118.59 118.59 0 0 0-12.2-5.64 129.35 129.35 0 0 0 15.38-5.63c7.11-2.91 16-6.54 28.89-10.62 3.22-1 7.32-2.31 12-3.69l-.32-.43c-.09-.12-.18-.24-.25-.35s-.33-.49-.46-.73a7.31 7.31 0 0 1-.64-1.37 1.55 1.55 0 0 1-.07-.23.66.66 0 0 1-.06-.2c0-.11-.06-.23-.09-.34s0 0 0-.06v-.26a.19.19 0 0 0 0-.08.53.53 0 0 0 0-.13 4.07 4.07 0 0 1 0-.5 5 5 0 0 1 .1-1 2.49 2.49 0 0 1 .09-.37c-2.1.62-4.08 1.22-5.92 1.79-2.3.7-4.38 1.36-6.19 1.93s-3.58 1.15-5.25 1.7c-4.6 1.54-8.61 3-12.22 4.38-3.75 1.42-7 2.75-10 4l-1.85.75c-11.23 4.61-17.44 7.16-28.12 6.81a122.78 122.78 0 0 0-13.86-2.49c-5.26-1.94-9.53-4.86-14.61-8.36l-2.41-1.65c-2.76-1.88-5.81-3.89-9.38-5.93a116.84 116.84 0 0 0-20.07-9c-19.65-6.79-37.92-7.49-66.74-6.27l.15.2c.07.1.15.21.21.31v.06l.14.23a.93.93 0 0 1 0 .1 3.26 3.26 0 0 1 .2.43 3.16 3.16 0 0 1 .12.37 1.36 1.36 0 0 1 0 .17 1.86 1.86 0 0 1 0 .91c-.81 2.81-9.51 1.81-9.74 3.67a.44.44 0 0 0 0 .22c30.09-1.52 48.88-1.59 67.36 3.64q3 .84 6 1.87a107.66 107.66 0 0 1 19.83 9c4 2.33 7.34 4.65 10.52 6.83 1.09.75 2.17 1.5 3.25 2.22-10.61 0-20.93 1.25-32.15 2.83l-1.75.25q-4.85.69-9.3 1.36l.06.15c.06.14.12.28.2.43a1.71 1.71 0 0 0 .12.23l.13.23c0 .08.09.16.14.24s.09.16.14.24c.15.25.32.5.48.76l.33.5c.27.42.54.84.78 1.26.1.17.19.34.28.52a4.81 4.81 0 0 1 .22.46v.06a4.22 4.22 0 0 1 .18.45 2.78 2.78 0 0 1 .12.38l8.71-1.26c4.65-.66 9.15-1.26 13.57-1.72 5.51-.59 10.9-1 16.36-1a118.41 118.41 0 0 1 14.91.76c.7.24 1.41.46 2.15.67a51.74 51.74 0 0 0 12.21 1.9q2.64.65 5 1.35a101.87 101.87 0 0 1 13.55 5c2.47 1.11 4.84 2.29 7.17 3.53 2.52 1.33 5 2.72 7.55 4.16l1.78 1c3.58 2 7.28 4.14 11.43 6.33l.71.36a128.26 128.26 0 0 0-13 .08c-2.92.17-5.62.43-8.17.77l.76.65 1.19 1 1.07.92c1.31 1.12 2.49 2.16 3.53 3.15l2-.13a123.78 123.78 0 0 1 30.36 2l1.39.6a1 1 0 0 1 0-.17 3.55 3.55 0 0 1 0-.46 5.27 5.27 0 0 1 0-.56 3.87 3.87 0 0 1 .13-.59 4.3 4.3 0 0 1 .2-.57c.09-.19.18-.38.29-.57a4.92 4.92 0 0 1 .37-.56 2.47 2.47 0 0 1 .21-.27 2.61 2.61 0 0 1 .22-.27 2 2 0 0 1 .24-.26 4.54 4.54 0 0 1 .38-.38c.17-.16.35-.32.54-.47l.29-.23.3-.21c-6.69-2.81-13.41-6-20-9.45-3.92-2.08-7.58-4.16-11.17-6.17Zm-106.29-9.25a4.22 4.22 0 0 0-.18-.45v-.06a4.81 4.81 0 0 0-.22-.46c-.09-.18-.18-.35-.28-.52-.24-.42-.51-.84-.78-1.26l-.33-.5c-.16-.26-.33-.51-.48-.76-.05-.08-.1-.16-.14-.24s-.1-.16-.14-.24l-.13-.23a1.71 1.71 0 0 1-.12-.23c-.08-.15-.14-.29-.2-.43l-.06-.15-7.13 1.1c-3.06.48-6 1-8.78 1.42-8.74 1.41-16.26 2.8-22.74 4.1-5.94 1.18-11.09 2.29-15.68 3.32l-4.92 1.13c-2.3.53-4.45 1-6.5 1.53-3 .71-5.78 1.37-8.4 2a139.62 139.62 0 0 1-28.38 3.8l-1.95.06a117.93 117.93 0 0 1-26.51-2 84.61 84.61 0 0 1-8.59-2.14c-5.07-1.54-9.57-3.38-14.16-5.26-2.6-1.07-5.23-2.14-8-3.17-2-.75-4-1.48-6.22-2.16a106 106 0 0 0-17.71-4h-.13.09c1.94-1 3.91-2.19 6-3.42 1.54-.91 3.16-1.86 4.92-2.85l1.82-1a138.56 138.56 0 0 1 23.52-10.28c1.26-.42 2.5-.82 3.73-1.19s2.25-.67 3.36-1V43.33a1 1 0 0 1 0-.1l.09-.24a.88.88 0 0 0 .05-.15c.06-.15.11-.3.17-.44a5.89 5.89 0 0 1 .24-.58c.12-.27.24-.54.37-.81.25-.49.51-1 .8-1.43.1-.18.22-.36.33-.53s.2-.3.32-.45l.06-.09.19-.26.21-.28.27-.34.51-.59a.17.17 0 0 1 .06-.06l.27-.29a.8.8 0 0 1 .13-.13l.23-.23c.08-.09.18-.17.27-.26l.1-.09c-3.21.73-6.41 1.57-9.69 2.57-1.44.43-2.89.89-4.37 1.38a145 145 0 0 0-25.77 11.32c-2 1.14-3.91 2.23-5.67 3.26l-.75.44c-1.1.65-2.14 1.26-3.15 1.82-5 2.82-9.08 4.68-14.66 5.22.06.13.11.25.16.38a6.64 6.64 0 0 1 .28.86 4.05 4.05 0 0 1 .12.47c0 .12 0 .24.07.36s0 0 0 .06V66.53a2 2 0 0 1 0 .24v.09a1.55 1.55 0 0 1-.05.23c0 .16-.08.32-.13.47a7.62 7.62 0 0 1-.33.91c13.39.43 23 2.35 31 4.82 5.25 1.62 9.82 3.49 14.31 5.33A141 141 0 0 0 976.62 85c1.09.3 2.22.57 3.37.83 2.32.53 4.77 1 7.39 1.38-2.78 1.06-5.53 2.29-8.33 3.67a.41.41 0 0 0 0 .11v.64c0 .19 0 .38.09.58s.07.35.11.52.05.2.08.3.13.45.21.68.2.53.32.78a1.11 1.11 0 0 0 .07.16c.11.22.22.43.34.64l.06.1a3.45 3.45 0 0 0 .2.32 3.37 3.37 0 0 0 .21.31 7.85 7.85 0 0 0 .56.73c9-4.52 17.23-7.24 27.13-7.45a20.58 20.58 0 0 1 3.8.22c4.45.66 13.35 3.05 35.21 11.51 2.45 1 5.07 2 7.86 3.08l.45.18q3.42 1.35 6.43 2.57c9 3.64 15.42 6.41 20.39 8.54 3.37 1.44 6.07 2.6 8.43 3.54a141.19 141.19 0 0 0-31 11.66l.09.35c0 .12.06.24.1.37s.1.35.15.51.12.35.19.51.1.26.16.38a1.47 1.47 0 0 0 .1.22 2.44 2.44 0 0 0 .14.28c.09.18.2.34.3.5l.13.18a3.13 3.13 0 0 0 .38.42.8.8 0 0 0 .17.15 1.56 1.56 0 0 0 .35.24l.22.11.24.09c2.81.81 4.67-5.21 10.29-5.51h1.17a3.37 3.37 0 0 1 .36.06 1.86 1.86 0 0 1 .34.07 2.37 2.37 0 0 1 .36.09l.34.1a7.47 7.47 0 0 1 .92.39 111.73 111.73 0 0 1 20.79-6c0-.17 0-.33.07-.5a2.56 2.56 0 0 0 0-.39 3.75 3.75 0 0 0 0-.67v-.52a3 3 0 0 0-.06-.42 3.15 3.15 0 0 0-.09-.42 2.14 2.14 0 0 0-.09-.34l-.06-.21a2.47 2.47 0 0 0-.1-.29 8.49 8.49 0 0 0-.35-.85 7.79 7.79 0 0 0-.44-.86c-.08-.15-.17-.29-.26-.44a26.28 26.28 0 0 0-3-3.88l-.66-.74c-.38-.41-.78-.82-1.19-1.25l-.37-.38-5.68-2.42c-5-2.13-11.43-4.9-20.39-8.53-2.19-.89-4.53-1.83-7-2.82-13.61-5.41-23.23-8.91-30.16-11.17 7.54-1 14.25-2.63 22.75-4.65 11.74-2.78 26.88-6.36 52.57-10.56l3.53-.57q5.41-.87 11.45-1.76a2.78 2.78 0 0 0-.01-.26Zm0 0a4.22 4.22 0 0 0-.18-.45v-.06a4.81 4.81 0 0 0-.22-.46c-.09-.18-.18-.35-.28-.52-.24-.42-.51-.84-.78-1.26l-.33-.5c-.16-.26-.33-.51-.48-.76-.05-.08-.1-.16-.14-.24s-.1-.16-.14-.24l-.13-.23a1.71 1.71 0 0 1-.12-.23c-.08-.15-.14-.29-.2-.43l-.06-.15-7.13 1.1c-3.06.48-6 1-8.78 1.42-8.74 1.41-16.26 2.8-22.74 4.1-5.94 1.18-11.09 2.29-15.68 3.32l-4.92 1.13c-2.3.53-4.45 1-6.5 1.53-3 .71-5.78 1.37-8.4 2a139.62 139.62 0 0 1-28.38 3.8l-1.95.06a117.93 117.93 0 0 1-26.51-2 84.61 84.61 0 0 1-8.59-2.14c-5.07-1.54-9.57-3.38-14.16-5.26-2.6-1.07-5.23-2.14-8-3.17-2-.75-4-1.48-6.22-2.16a106 106 0 0 0-17.71-4h-.13.09c1.94-1 3.91-2.19 6-3.42 1.54-.91 3.16-1.86 4.92-2.85l1.82-1a138.56 138.56 0 0 1 23.52-10.28c1.26-.42 2.5-.82 3.73-1.19s2.25-.67 3.36-1V43.33a1 1 0 0 1 0-.1l.09-.24a.88.88 0 0 0 .05-.15c.06-.15.11-.3.17-.44a5.89 5.89 0 0 1 .24-.58c.12-.27.24-.54.37-.81.25-.49.51-1 .8-1.43.1-.18.22-.36.33-.53s.2-.3.32-.45l.06-.09.19-.26.21-.28.27-.34.51-.59a.17.17 0 0 1 .06-.06l.27-.29a.8.8 0 0 1 .13-.13l.23-.23c.08-.09.18-.17.27-.26l.1-.09c-3.21.73-6.41 1.57-9.69 2.57-1.44.43-2.89.89-4.37 1.38a145 145 0 0 0-25.77 11.32c-2 1.14-3.91 2.23-5.67 3.26l-.75.44c-1.1.65-2.14 1.26-3.15 1.82-5 2.82-9.08 4.68-14.66 5.22.06.13.11.25.16.38a6.64 6.64 0 0 1 .28.86 4.05 4.05 0 0 1 .12.47c0 .12 0 .24.07.36s0 0 0 .06V66.53a2 2 0 0 1 0 .24v.09a1.55 1.55 0 0 1-.05.23c0 .16-.08.32-.13.47a7.62 7.62 0 0 1-.33.91c13.39.43 23 2.35 31 4.82 5.25 1.62 9.82 3.49 14.31 5.33A141 141 0 0 0 976.62 85c1.09.3 2.22.57 3.37.83 2.32.53 4.77 1 7.39 1.38-2.78 1.06-5.53 2.29-8.33 3.67a.41.41 0 0 0 0 .11v.64c0 .19 0 .38.09.58s.07.35.11.52.05.2.08.3.13.45.21.68.2.53.32.78a1.11 1.11 0 0 0 .07.16c.11.22.22.43.34.64l.06.1a3.45 3.45 0 0 0 .2.32 3.37 3.37 0 0 0 .21.31 7.85 7.85 0 0 0 .56.73c9-4.52 17.23-7.24 27.13-7.45a20.58 20.58 0 0 1 3.8.22c4.45.66 13.35 3.05 35.21 11.51 2.45 1 5.07 2 7.86 3.08l.45.18q3.42 1.35 6.43 2.57c9 3.64 15.42 6.41 20.39 8.54 3.37 1.44 6.07 2.6 8.43 3.54a141.19 141.19 0 0 0-31 11.66l.09.35c0 .12.06.24.1.37s.1.35.15.51.12.35.19.51.1.26.16.38a1.47 1.47 0 0 0 .1.22 2.44 2.44 0 0 0 .14.28c.09.18.2.34.3.5l.13.18a3.13 3.13 0 0 0 .38.42.8.8 0 0 0 .17.15 1.56 1.56 0 0 0 .35.24l.22.11.24.09c2.81.81 4.67-5.21 10.29-5.51h1.17a3.37 3.37 0 0 1 .36.06 1.86 1.86 0 0 1 .34.07 2.37 2.37 0 0 1 .36.09l.34.1a7.47 7.47 0 0 1 .92.39 111.73 111.73 0 0 1 20.79-6c0-.17 0-.33.07-.5a2.56 2.56 0 0 0 0-.39 3.75 3.75 0 0 0 0-.67v-.52a3 3 0 0 0-.06-.42 3.15 3.15 0 0 0-.09-.42 2.14 2.14 0 0 0-.09-.34l-.06-.21a2.47 2.47 0 0 0-.1-.29 8.49 8.49 0 0 0-.35-.85 7.79 7.79 0 0 0-.44-.86c-.08-.15-.17-.29-.26-.44a26.28 26.28 0 0 0-3-3.88l-.66-.74c-.38-.41-.78-.82-1.19-1.25l-.37-.38-5.68-2.42c-5-2.13-11.43-4.9-20.39-8.53-2.19-.89-4.53-1.83-7-2.82-13.61-5.41-23.23-8.91-30.16-11.17 7.54-1 14.25-2.63 22.75-4.65 11.74-2.78 26.88-6.36 52.57-10.56l3.53-.57q5.41-.87 11.45-1.76a2.78 2.78 0 0 0-.01-.26ZM1224 78.46l-3-1.72c-2.34-1.32-4.64-2.6-7-3.82a118.59 118.59 0 0 0-12.2-5.64 129.35 129.35 0 0 0 15.38-5.63c7.11-2.91 16-6.54 28.89-10.62 3.22-1 7.32-2.31 12-3.69l-.32-.43c-.09-.12-.18-.24-.25-.35s-.33-.49-.46-.73a7.31 7.31 0 0 1-.64-1.37 1.55 1.55 0 0 1-.07-.23.66.66 0 0 1-.06-.2c0-.11-.06-.23-.09-.34s0 0 0-.06v-.26a.19.19 0 0 0 0-.08.53.53 0 0 0 0-.13 4.07 4.07 0 0 1 0-.5 5 5 0 0 1 .1-1 2.49 2.49 0 0 1 .09-.37c-2.1.62-4.08 1.22-5.92 1.79-2.3.7-4.38 1.36-6.19 1.93s-3.58 1.15-5.25 1.7c-4.6 1.54-8.61 3-12.22 4.38-3.75 1.42-7 2.75-10 4l-1.85.75c-11.23 4.61-17.44 7.16-28.12 6.81a122.78 122.78 0 0 0-13.86-2.49c-5.26-1.94-9.53-4.86-14.61-8.36l-2.41-1.65c-2.76-1.88-5.81-3.89-9.38-5.93a116.84 116.84 0 0 0-20.07-9c-19.65-6.79-37.92-7.49-66.74-6.27l.15.2c.07.1.15.21.21.31v.06l.14.23a.93.93 0 0 1 0 .1 3.26 3.26 0 0 1 .2.43 3.16 3.16 0 0 1 .12.37 1.36 1.36 0 0 1 0 .17 1.86 1.86 0 0 1 0 .91c-.81 2.81-9.51 1.81-9.74 3.67a.44.44 0 0 0 0 .22c30.09-1.52 48.88-1.59 67.36 3.64q3 .84 6 1.87a107.66 107.66 0 0 1 19.83 9c4 2.33 7.34 4.65 10.52 6.83 1.09.75 2.17 1.5 3.25 2.22-10.61 0-20.93 1.25-32.15 2.83l-1.75.25q-4.85.69-9.3 1.36l.06.15c.06.14.12.28.2.43a1.71 1.71 0 0 0 .12.23l.13.23c0 .08.09.16.14.24s.09.16.14.24c.15.25.32.5.48.76l.33.5c.27.42.54.84.78 1.26.1.17.19.34.28.52a4.81 4.81 0 0 1 .22.46v.06a4.22 4.22 0 0 1 .18.45 2.78 2.78 0 0 1 .12.38l8.71-1.26c4.65-.66 9.15-1.26 13.57-1.72 5.51-.59 10.9-1 16.36-1a118.41 118.41 0 0 1 14.91.76c.7.24 1.41.46 2.15.67a51.74 51.74 0 0 0 12.21 1.9q2.64.65 5 1.35a101.87 101.87 0 0 1 13.55 5c2.47 1.11 4.84 2.29 7.17 3.53 2.52 1.33 5 2.72 7.55 4.16l1.78 1c3.58 2 7.28 4.14 11.43 6.33l.71.36a128.26 128.26 0 0 0-13 .08c-2.92.17-5.62.43-8.17.77l.76.65 1.19 1 1.07.92c1.31 1.12 2.49 2.16 3.53 3.15l2-.13a123.78 123.78 0 0 1 30.36 2l1.39.6a1 1 0 0 1 0-.17 3.55 3.55 0 0 1 0-.46 5.27 5.27 0 0 1 0-.56 3.87 3.87 0 0 1 .13-.59 4.3 4.3 0 0 1 .2-.57 5.1 5.1 0 0 1 .29-.57 4.92 4.92 0 0 1 .37-.56 2.47 2.47 0 0 1 .21-.27 2.61 2.61 0 0 1 .22-.27 2 2 0 0 1 .24-.26c.12-.13.25-.26.38-.38s.35-.32.54-.47l.59-.44c-6.69-2.81-13.41-6-20-9.45-3.92-2.08-7.58-4.16-11.17-6.17Zm159.38-18.87c-3.16-1.77-6.16-3.61-9.08-5.48-1.89-1.21-3.74-2.42-5.59-3.63-10-6.51-19.6-12.78-32.12-16.39l-.15.27a2.53 2.53 0 0 1-.13.22v.07l-.06.07a2.19 2.19 0 0 1-.2.25l-.26.28c-.12.12-.25.23-.39.35s-.28.22-.43.33l-.43.29-.55.31-.54.28-.28.13-.29.13c-.39.17-.79.33-1.21.48l-.64.23c-.64.22-1.31.43-2 .63l-.67.2a68.88 68.88 0 0 1 14.45 4.39 89.37 89.37 0 0 1 9.55 4.75c4.34 2.46 8.54 5.2 12.9 8.05 1.86 1.22 3.76 2.46 5.71 3.7 2.45 1.56 5 3.13 7.64 4.66a114.1 114.1 0 0 0 26.55 11.37c.31-.36.61-.7.92-1s.47-.52.71-.76l.4-.4c.27-.26.54-.5.81-.73l.59-.47.24-.18c.12-.08.24-.16.37-.23l.42-.23a5.12 5.12 0 0 1 .53-.25h.33a3 3 0 0 1 .4-.12 5.65 5.65 0 0 1 .93-.16h.43a104.73 104.73 0 0 1-28.82-11.41Zm148.7-41.13c-12.67-5.78-27.83-12.7-44.69-18.31h-23.12c2.07.47 4.13 1 6.16 1.5 4 1.05 7.94 2.21 11.8 3.45 1.23.39 2.44.79 3.65 1.19 16 5.41 30.66 12.1 43.53 18a294.09 294.09 0 0 1 44.75 25.4c-13.81 1.33-27.61 3-41.32 5.06-12.9 1.93-23.71 3.87-32.92 5.74-12.18 2.46-21.59 4.8-29.39 6.8l-3.48.89-1.32.34-6.34 1.61a120 120 0 0 1-16.29 3.12 82.29 82.29 0 0 1-19.27-.41l-.5-.06q-4.32-.56-8.25-1.35c-.95-.18-1.87-.38-2.79-.59a104.73 104.73 0 0 1-28.9-11.22c-3.16-1.77-6.16-3.61-9.08-5.48-1.89-1.21-3.74-2.42-5.59-3.63-10-6.51-19.6-12.78-32.12-16.39-.92-.26-1.86-.51-2.81-.75 1.06-.46 2.09-1 3.11-1.48a89.3 89.3 0 0 0 9.84-5.94c2-1.36 4.06-2.8 6.13-4.27l1.29-.92c8.54-6 18.1-12.59 31.79-17.51 3.09-1.12 6.39-2.15 9.94-3.07h-19.45a115.65 115.65 0 0 0-14 7.38c-2 1.21-3.84 2.42-5.65 3.64-2.65 1.77-5.14 3.54-7.58 5.27q-2 1.38-3.82 2.69c-.31.21-.6.42-.9.61a88.89 88.89 0 0 1-11.16 6.75 44 44 0 0 1-16.23 4.53c-2.64-.1-5.37-.11-8.26 0a51.61 51.61 0 0 1-7.61-1.12 39.74 39.74 0 0 1-9.36-3.37 54.34 54.34 0 0 1-10.35-7.09c-1.92-1.61-3.85-3.35-5.88-5.21l-1.26-1.15c-3.52-3.22-7.37-6.75-11.95-10.4-1.07-.84-2.17-1.7-3.33-2.56H1248c9.37 6 16 12.08 22.1 17.66l.8.73c3.1 2.84 6.09 5.54 9.25 8a54 54 0 0 0 10.53 6.46c-3.71.62-7.41 1.34-11 2.13-8.49 1.84-16.55 4-23.36 6.06-2.1.62-4.08 1.22-5.92 1.79-2.3.7-4.38 1.36-6.19 1.93s-3.58 1.15-5.25 1.7c-4.6 1.54-8.61 3-12.22 4.38-3.75 1.42-7 2.75-10 4l-1.85.75c-11.23 4.61-17.44 7.16-28.12 6.81a122.78 122.78 0 0 0-13.86-2.49c-5.26-1.94-9.53-4.86-14.61-8.36l-2.41-1.65c-2.76-1.88-5.81-3.89-9.38-5.93a116.84 116.84 0 0 0-20.07-9c-19.65-6.79-37.92-7.49-66.74-6.27-4.88.2-10.07.46-15.62.76l-11.2.61-4.08.23c6.74-3.4 12.95-8.71 19.91-14.71a219.45 219.45 0 0 1 19.5-15.56h-10.82c-4.77 3.66-9 7.31-13 10.74-12.55 10.8-21.62 18.6-35.58 16.76a30.18 30.18 0 0 1-4.32-.89c-6.47-1.9-10.47-5.9-16-11.48-1.57-1.57-3.24-3.25-5.11-5A109.61 109.61 0 0 0 971 .15h-11.9l1.32.75a103.41 103.41 0 0 1 20.08 15.46c1.23 1.19 2.37 2.33 3.46 3.42 1.68 1.68 3.28 3.28 4.89 4.76A34.86 34.86 0 0 0 1001 32.3c-4.36.4-8.43.87-12.34 1.45S981 35 977.24 35.86c-3.21.73-6.41 1.57-9.69 2.57-1.44.43-2.89.89-4.37 1.38a145 145 0 0 0-25.77 11.32c-2 1.14-3.91 2.23-5.67 3.26l-.75.44c-1.1.65-2.14 1.26-3.15 1.82-5 2.82-9.08 4.68-14.66 5.22-1 .09-2.06.14-3.18.15h-2c-7.18-.27-11.4-2.06-17.41-5.77-1.7-1-3.54-2.25-5.63-3.62a300.32 300.32 0 0 0-39.27-22.09c-17.5-8.32-29.25-12.39-37.12-14.37a77.11 77.11 0 0 0 7.29-3.22 90.64 90.64 0 0 0 9.52-5.56c2.54-1.66 5-3.37 7.34-5.07l3-2.14H824.7c-2.8 1.91-5.65 3.82-8.7 5.51-1 .55-2 1.09-3 1.62A71.5 71.5 0 0 1 801 12a90.65 90.65 0 0 1-13.38 2.86h-.13a112.14 112.14 0 0 1-17.67 1c-14.41-.27-26.69-3.14-36.39-5.42-3.92-.92-7.49-1.89-10.78-2.9A139.26 139.26 0 0 1 703.48.15H689.3l1 .52L694.78 3A157 157 0 0 0 722 14.09c3.06.93 6.35 1.81 9.9 2.64 8.8 2.06 19.64 4.6 32.3 5.37-2.67 1.17-5.49 2.47-8.5 3.89-2.68 1.27-5.52 2.63-8.56 4.09-6.39 3.07-11.58 5.8-15.89 8.22a176.44 176.44 0 0 0-17.44 11.22c-5.48 3.9-9.13 6.51-17 9.22a82.72 82.72 0 0 0-8.85 1 70.8 70.8 0 0 0-9.48 2.2h-.06c-1.23.37-2.37.78-3.52 1.22a100.52 100.52 0 0 1-13 .08h-.08a154.14 154.14 0 0 1-30-5c-3.36-.86-6.6-1.77-9.7-2.66L616.71 54c-.8-.23-1.57-.47-2.31-.7a125.66 125.66 0 0 1-13.26-4.88c-3.08-1.35-5.84-2.71-8.77-4.15-1.92-.95-3.89-1.93-6.07-2.94-1.57-.75-3.24-1.51-5.06-2.32-6.06-2.67-13.79-5.73-25-9.46L554.6 29c-15.28-5.08-25.81-8.52-35.29-10.29 1.3-.6 2.56-1.22 3.79-1.87 8-4.28 14.62-9.62 21.06-14.86l.11-.09 2.08-1.74h-10.11c-9.29 7.42-18.77 14.08-33 17.17a66.36 66.36 0 0 0-13 1.49c-1.1 0-2.19 0-3.27-.08a60.15 60.15 0 0 1-17.18-3.45h-.07a78.15 78.15 0 0 1-8.32-3.47c-2.83-1.35-5.61-2.87-8.36-4.48-3.78-2.23-7.5-4.66-11.23-7.18h-11.26l1.06.73c13.55 9.34 27.39 18.89 43.79 22.64l-2.6 1c-7.72 2.91-17.32 6.53-32.31 11-13.76 4.09-25.87 6.79-49.52 12-11.47-5.77-23.44-11.61-37.64-16.3-16.17-5.35-57.41-16.1-103.76-6 4.76-2.87 10.57-6.36 18.11-10.53 8.67-4.8 17.68-9.79 26.79-14.54h-13.55c-5.54 3-11 6-16.33 9-8.45 4.68-14.76 8.49-19.83 11.56-11.61 7-16.42 9.93-26.17 10.82C202.1 33 192 26.67 180.37 19.33S155.47 3.67 133.35 1c-34.51-4.13-65.87 8.3-71.8 10.84A153.7 153.7 0 0 0 42 22.07c-7.69 4.57-13.77 8.19-24 10.19a70 70 0 0 1-18 1.12v13.28a68.79 68.79 0 0 1 19.05-7c37.22-7.57 79.05 17.66 92.8 26 3.94 2.38 7.09 4.46 9.86 6.29 3.18 2.1 5.84 3.83 8.45 5.2A100.89 100.89 0 0 0 112.83 85a143.64 143.64 0 0 1-31.46 13.2c-14.5 4.27-24.5 7.19-37 6.58-1.19-.14-2.36-.23-3.54-.26-10.42-1-20.51-4.28-38.79-10.16L0 93.68v6.71h.12c8.55 2.75 15.34 4.93 21.27 6.6A95.29 95.29 0 0 0 0 116.2v7.35c.59-.36 1.2-.71 1.8-1 6.87-3.89 21.15-12 38.7-11.61 1.21.11 2.39.2 3.56.26 5.23.66 11.18 2.56 21.76 6 19.29 6.33 34.53 11.32 54.1 21.29 2.92 1.49 5.57 2.91 8 4.21 4.21 2.24 7.9 4.2 11.36 5.69-4.55 1.19-8.73 2.44-12.41 3.54-19 5.7-28.16 12.62-36.27 18.72C82.2 177 75.55 182 60 184q-3.47.47-6.81.64h27.52a83 83 0 0 0 13.74-8.94c7.68-5.78 16.4-12.33 34.28-17.71 17.36-5.21 46.42-13.94 72.49-1.87a86.9 86.9 0 0 1 12.05 7c4.28 2.82 8.2 5.39 12.93 6.8a110.71 110.71 0 0 0-19.75 10.24q-3.37 2.12-6.55 4.47h11.41c8.32-5.17 22.62-13.49 40.6-13.19 11.33.17 17.72 3.74 24.49 7.51a74.81 74.81 0 0 0 11.84 5.68h29.58c8.11-2.57 18.5-7 32.89-13 12.26-5.17 21.54-9.68 29-13.31 14.07-6.85 22.75-11.06 37.21-13.33l.63.1 3.61.55c26.68 4.09 53.72 8.4 62.23 9.87C509.55 160 520.34 165 529 169l1.78.81q-21.72 2.86-44.73 14.82h15c16.62-7 32.66-10 48-9.22 2.08.27 4.35.48 6.89.6 11.06 1.45 17.1 4.36 25.44 8.38l.5.24h15.39c-5.23-2.17-9.38-4.18-13.12-6-2.91-1.4-5.62-2.7-8.39-3.87 14.5-2.6 25.72-8.6 36.66-14.47 15.25-8.2 31-16.64 56.62-17a49.24 49.24 0 0 0 8.6.19 176 176 0 0 1 46 9c12.79 4.74 20.91 9.87 28.08 14.38 5.24 3.31 10.07 6.35 15.79 8.63a63.47 63.47 0 0 0-17.51 9.16h12.14a53.19 53.19 0 0 1 19.86-5.59 33.32 33.32 0 0 0 3.79.21 48.59 48.59 0 0 0 6.59-.48c8.47.43 16.8 2.47 27.8 5.86h20.69c-1.33-.46-2.69-.91-4.09-1.37-11.16-3.63-19.85-6.46-27.59-8.34 7-2 15.26-4.71 25.15-7.94 18.19-5.93 29.58-10.51 38.74-14.19 11.69-4.7 18.63-7.48 29.89-8.89a28.17 28.17 0 0 0 7.52 0 30.53 30.53 0 0 0 5.18-1.06 115.43 115.43 0 0 1 36.93 4.39c14.66 4.28 23.07 10.13 29.82 14.84 4.12 2.87 7.93 5.52 12.33 7.27-5.47 2.68-14.13 7.19-29 15l-.57.3h13.72c23-12 24.89-12.72 28.15-13.21a31.15 31.15 0 0 0 4.61-.46c12-.65 20.62 3.66 30.37 8.59 3.33 1.68 6.83 3.44 10.64 5.08h23.07a74.18 74.18 0 0 1-18.09-4.81c-4.54-1.82-8.67-3.9-12.75-6-1.41-.71-2.81-1.42-4.22-2.11a71.05 71.05 0 0 0-16.77-6.22l.58-.44c2.22-1.72 4.35-3.69 6.61-5.83q.5-.45 1-.93c6.33-6 14.2-13.49 28.47-20.74a172.15 172.15 0 0 1 16.06-7.36 111.73 111.73 0 0 1 20.79-6 85.27 85.27 0 0 1 10.27-1.23c1.09.08 2.18.13 3.28.13 1.66 0 3.35 0 5.08-.14a65.76 65.76 0 0 1 12.72 1.94 54.76 54.76 0 0 1 6.36 2c8.51 3.32 13.71 8 19.17 12.95 7.13 6.43 14.49 13.09 29.06 16 .54.11 1.09.19 1.64.27-8 2.09-19.85 5.43-36.74 10.19l-5 1.39c-5.68 1.61-10.78 3.08-15.38 4.43-11.51 3.38-19.84 6-25.94 7.91-7.88 2.47-12.33 3.87-15.81 4.53h22.69c8.32-2.6 19.9-6.14 36.18-10.73 31.48-8.88 48.83-13.77 52.65-14.07 21.84-1.72 34.46 4.64 51.93 13.44 7 3.5 14.73 7.42 24.13 11.36h18c-16.77-5.69-29-11.83-39.3-17.05-13.55-6.83-24.93-12.54-40.1-14 7.83-1.93 16.95-4.68 28.07-8a495.06 495.06 0 0 0 48.7-17.28c12.6-5.13 18.92-7.71 31.16-7.79 8.35 0 11.51 1.08 21.94 4.85 7.87 2.84 19.77 7.14 40.71 13.35 22.42 6.65 39.07 11.59 52.1 14.5a90.77 90.77 0 0 0-11.44 7.92 183.51 183.51 0 0 1-23.47 15.91c-3.62 2-8.85 4.78-15.39 7.7h14.55c1.47-.77 2.8-1.5 4-2.15a189.71 189.71 0 0 0 24.32-16.34c7.55-5.8 12.26-9.39 20-10.69a58.76 58.76 0 0 0 15.82.32c8.72 1.67 18.18 5.73 32.7 12a205 205 0 0 1 26.44 13.58c2 1.18 3.83 2.28 5.7 3.31h16.28c-7.81-2.29-12.4-5-18.72-8.78a209.47 209.47 0 0 0-27.18-14c-9-3.88-16.15-6.93-22.44-9.15 9.71-3.34 16.93-8.5 25.44-14.61a227.8 227.8 0 0 1 38.3-23.19 248.59 248.59 0 0 1 27.87-11.2c2.51.22 5.09.43 7.77.62 1.9.13 3.8.24 5.7.35V93.1q-7.18 1.9-14.24 4.24c-29.1-2.75-46.52-8.23-62-13.13-13.14-4.15-24.56-7.75-40.21-8.9l3.89-1A576.16 576.16 0 0 1 1533.85 61c15.71-2.34 31.55-4.21 47.39-5.61v-8.64a301.34 301.34 0 0 0-49.12-28.29Zm-919 70c-30.62 9.84-42.92 11.17-54.86 10.17l-4.34-.51c-9.45-1.38-20.84-4.8-40.86-10.82-5.07-1.53-9.38-2.91-13.56-4.25-8.55-2.74-16.62-5.33-29-8.4-10.62-2.64-18.58-4.2-22.41-4.94l-1.22-.24C428.8 65.9 414.48 59.31 400 52.05c19-4.21 29.94-6.76 42.35-10.46 15.2-4.52 24.93-8.18 32.74-11.13a129.64 129.64 0 0 1 15.87-5.29A68.5 68.5 0 0 0 504 23.68c13.9-.21 26.1 3.84 50.24 11.87C573 41.8 581.81 46.13 589.56 50a138.08 138.08 0 0 0 25.34 10.07c13.05 3.85 28.94 8.53 46.18 9.55-9.21 4.54-22.16 10.58-47.97 18.87ZM929 63.31c1.94-1 3.91-2.19 6-3.42 1.54-.91 3.16-1.86 4.92-2.85l1.82-1a138.56 138.56 0 0 1 23.46-10.18c1.26-.42 2.5-.82 3.73-1.19s2.25-.67 3.36-1c12.67-3.52 24.72-4.9 41.8-6 5.71-.38 12-.72 19-1.11l4.78-.27 13-.69c30.09-1.52 48.88-1.59 67.36 3.64q3 .84 6 1.87a107.66 107.66 0 0 1 19.83 9c4 2.33 7.34 4.65 10.52 6.83 1.09.75 2.17 1.5 3.25 2.22-10.61 0-20.93 1.25-32.15 2.83l-1.75.25q-4.85.69-9.3 1.36l-7.13 1.1c-3.06.48-6 1-8.78 1.42-8.72 1.49-16.24 2.88-22.72 4.18-5.94 1.18-11.09 2.29-15.68 3.32l-4.92 1.13c-2.3.53-4.45 1-6.5 1.53-3 .71-5.78 1.37-8.4 2a139.62 139.62 0 0 1-28.38 3.8l-1.95.06a117.93 117.93 0 0 1-26.51-2 84.61 84.61 0 0 1-8.59-2.14c-5.07-1.54-9.57-3.38-14.16-5.26-2.6-1.07-5.23-2.14-8-3.17-2-.75-4-1.48-6.22-2.16a106 106 0 0 0-17.71-4h-.13ZM792.88 85.83c-1.42-.09-2.87-.2-4.37-.34a117.55 117.55 0 0 1-26-5.28A160.1 160.1 0 0 1 738.9 70c-9.21-4.66-17.66-8.93-28.22-10.6 2.31-1.41 4.44-2.93 6.85-4.65a169.13 169.13 0 0 1 18.9-12c3.76-2.07 8.19-4.35 13.49-6.9 3.88-1.87 7.39-3.54 10.61-5 5.69-2.65 10.49-4.73 14.89-6.3a64.29 64.29 0 0 1 12.35-3.22l.66-.08h.13a56 56 0 0 1 6.44-.49 41.66 41.66 0 0 1 9.18 1c9.59 2 22.6 6.85 38.79 14.55 1.28.61 2.53 1.21 3.74 1.81q2.63 1.27 5 2.51a283 283 0 0 1 28.54 16.56l1.21.79c3 1.93 5.49 3.59 7.91 5A135.15 135.15 0 0 0 870 66.41a182 182 0 0 0-25.78 9.13l-4.29 1.78c-10.57 4.33-20.74 8-34.94 8.62a109.42 109.42 0 0 1-12.08-.11Z"/><path d="M965.15 184.65h13.75M820.14 184.65h20.69M486.06 184.65h15M581.86 184.65h180.28" class="cls-3"/></g></g></svg>