<svg id="Calque_1" data-name="Calque 1" xmlns="http://www.w3.org/2000/svg" viewBox="0 0 402.7 121.89"><defs><style>.cls-1{fill:#1aa9e1;}.cls-2{fill:#ea921a;}.cls-3{fill:#cbcb14;}.cls-4{fill:#1d1d1b;}</style></defs><path class="cls-1" d="M39.12,22.58c.89-.6,3.39,2.6,7.08,5.13C51,31,55.44,31.54,62.92,32.49a73.17,73.17,0,0,0,29.53-2.15A68.29,68.29,0,0,0,103.37,26L108,32.63C86.68,43.26,69.31,53.22,56.18,61.21S33.94,75.37,24.9,85.75a102.84,102.84,0,0,0-14,20.77A408.09,408.09,0,0,1,124,87.19c29.37-.78,51.82,1.86,88.27,6.29,30.68,3.73,69.95,9.72,115.42,19.78-39.73-6.23-72.1-10.4-95.1-13.13C220.08,98.65,213,97.81,203,96.9c-10.39-1-51.59-4.7-86.84-3.24C90.88,94.71,50.65,99.2,0,117A72,72,0,0,1,9.66,94.38c5.09-7.8,10.76-12.8,22.12-22.78A251.3,251.3,0,0,1,52.67,55,228.27,228.27,0,0,1,78.43,39.37a71.13,71.13,0,0,1-24.14-2.16C47.14,35.28,43.6,33,41.35,29.8,39.36,27,38.27,23.17,39.12,22.58Z"/><rect class="cls-1" x="340.54" y="10.28" width="51.36" height="51.36" transform="translate(75.47 -189.6) rotate(32.2)"/><rect class="cls-2" x="240.63" y="66.61" width="50.43" height="50.43"/><rect class="cls-3" x="61.49" y="61.45" width="50.73" height="50.73" transform="translate(-20.25 26.75) rotate(-15.7)"/><path class="cls-4" d="M169,62.83c-.4-5.63-4.33-10.73-10-13.21,5.13-3.56,7.86-9.51,6.87-15.1-1.29-7.31-8.74-13-17.39-12.27L120.36,22q.06,29,.13,58l34.25-.27C163.62,78,169.58,70.44,169,62.83Zm-36.4-30.07h14.43a6.24,6.24,0,0,1,6.6,6.41,6.22,6.22,0,0,1-7,5.59h-14Zm16.85,36.95-16.85.07V55.28l16.65.07a7.18,7.18,0,0,1,.2,14.36Z"/><path class="cls-4" d="M207.12,78.67a24.41,24.41,0,0,1-.87-3.84q.09-8.46.2-16.92a12.71,12.71,0,0,0-3.64-10.38c-2.93-2.75-6.68-2.79-11-2.83s-8.42-.09-12.13,2.76a15,15,0,0,0-5.2,8.16l9.38,2a5.69,5.69,0,0,1,1.55-3.1,6.44,6.44,0,0,1,4.51-1.68c1.36-.08,4.14-.24,5.6,1.75a5.14,5.14,0,0,1,.67,4c-1.44.44-3.71,1.09-6.54,1.76-6,1.41-6.86,1.1-8.76,2-3.56,1.71-7.73,6.28-7.15,11.53.62,5.61,6.38,9.38,11.53,9.91,6.82.69,11.44-4.43,11.93-5l1.15,3.77,10.45.21A25.88,25.88,0,0,1,207.12,78.67ZM192.83,75c-1.91,1.1-5.45,1.77-7.41-.41a4.87,4.87,0,0,1-.61-5.66c.82-1.18,2.06-1.16,6.54-2.29,2-.52,3.69-1,4.78-1.35C197.11,69.38,195.7,73.31,192.83,75Z"/><path class="cls-4" d="M224,88.18h12.41V42.07l15.94,0q.09-5.18.16-10.37h-45V41.6h16.62Z"/><path class="cls-4" d="M248.72,73.15l10,.13V98a6.92,6.92,0,0,0,6.14,5.19A7,7,0,0,0,272,97.08V73.21h10.38v37.42h-9.3v-4.46c-.63.72-5,5.51-11.67,5.27-4.87-.18-10.34-3-12.2-7.82a10.27,10.27,0,0,1-.67-3.91Q248.61,86.42,248.72,73.15Z"/><path class="cls-4" d="M333.66,73.17l12,3.41a23.67,23.67,0,0,1-7.24,13.13,24,24,0,0,1-14.16,5.93A27.33,27.33,0,0,1,306.26,91c-11.2-7.83-11.58-21.64-11.61-23.8-.14-12.56,7.62-27.46,21.22-30.75,7.24-1.74,17-.43,23.73,6.12a24.25,24.25,0,0,1,6.11,10.06l-12.23,3.6c-1.78-5.54-6.4-9.42-11.5-9.71-6.47-.36-10.56,5.23-11.24,6.16-2.53,3.46-2.61,7-2.78,12.9-.15,4.95-.27,8.61,2,12.46a12.6,12.6,0,0,0,18.5,4.8A13.12,13.12,0,0,0,333.66,73.17Z"/><path class="cls-4" d="M106.13,88.85l-10,1.49a6.83,6.83,0,0,1-13.55,1.41l22.79-8A21,21,0,0,0,101.21,74a17.77,17.77,0,0,0-8.56-6.48,17.29,17.29,0,0,0-11.12.14A17.76,17.76,0,0,0,72,75.91a19,19,0,0,0-1.83,11.73,20.53,20.53,0,0,0,6.48,13.15,19.06,19.06,0,0,0,14.22,4.85,17.06,17.06,0,0,0,11.46-5.8A16.79,16.79,0,0,0,106.13,88.85ZM83.89,76.11c3.43-1.63,8.16.25,9.57,4.52L80.65,85A7.11,7.11,0,0,1,83.89,76.11Z"/><path class="cls-4" d="M372.27,56.56a25.2,25.2,0,0,1,1.41-3.68l9.58-14a12.63,12.63,0,0,0,2.09-3.47,12.87,12.87,0,0,0,.66-7.18c-.9-3.92-4-6-7.55-8.47s-6.95-4.75-11.62-4.45A14.9,14.9,0,0,0,358,19.25l6.7,6.84a5.78,5.78,0,0,1,3-1.72,6.45,6.45,0,0,1,4.69,1.12c1.17.68,3.57,2.1,3.67,4.57a5.11,5.11,0,0,1-1.69,3.73c-1.44-.44-3.69-1.16-6.41-2.18-5.74-2.15-6.31-2.9-8.4-3.2-3.91-.55-9.91.92-12.35,5.61-2.61,5,.07,11.35,4.06,14.65,5.28,4.37,12,2.68,12.69,2.49l-1.15,3.77,8.57,6A26.18,26.18,0,0,1,372.27,56.56Zm-9.81-11c-2.2-.15-5.52-1.56-5.94-4.46a4.89,4.89,0,0,1,2.65-5c1.34-.52,2.36.19,6.71,1.74,2,.7,3.63,1.21,4.72,1.54C369.12,43.27,365.76,45.74,362.46,45.53Z"/></svg>