<svg
                width="207"
                height="63"
                viewBox="0 0 207 63"
                fill="none"
                xmlns="http://www.w3.org/2000/svg"
            >
                <g clip-path="url(#clip0_60_62)">
                    <path
                        d="M20.5117 11.9856C20.967 11.6804 22.2459 13.3081 24.1335 14.595C26.5889 16.2685 28.8602 16.5431 32.6865 17.0264C37.7442 17.6892 42.8848 17.3171 47.7925 15.9328C49.7149 15.3579 51.5838 14.6193 53.3786 13.7252L55.7471 17.0976C44.8409 22.5046 35.9553 27.5708 29.2387 31.6349C22.5221 35.6991 17.8619 38.8375 13.2375 44.1173C10.4263 47.3356 8.02125 50.8835 6.07586 54.6821C24.7993 48.7117 44.2771 45.4016 63.9318 44.8498C78.956 44.4531 90.4402 45.7959 109.086 48.0493C124.78 49.9465 144.869 52.9934 168.129 58.1105C147.805 54.9415 131.246 52.8204 119.481 51.4318C113.081 50.679 109.46 50.2517 104.344 49.7889C99.0291 49.2802 77.9533 47.3982 59.9213 48.1408C46.9894 48.6749 26.4099 50.9588 0.5 60.0128C1.47129 55.9241 3.14286 52.0321 5.44154 48.507C8.04532 44.5395 10.9458 41.9963 16.757 36.9199C20.1661 33.9191 23.7332 31.1006 27.4432 28.4762C31.6548 25.5404 36.0569 22.8845 40.6206 20.5259C36.4715 20.8648 32.2946 20.4932 28.2719 19.4272C24.6143 18.4455 22.8034 17.2858 21.6525 15.6581C20.6345 14.2338 20.0769 12.2857 20.5117 11.9856Z"
                        fill="#1AA9E1"></path>
                    <path
                        d="M205.945 14.7083L183.713 0.787109L169.713 22.8935L191.945 36.8147L205.945 14.7083Z"
                        fill="#1AA9E1"></path>
                    <path
                        d="M149.391 34.3813H123.594V60.0328H149.391V34.3813Z"
                        fill="#EA921A"></path>
                    <path
                        d="M53.9115 28.7508L28.9289 35.7334L35.9512 60.5748L60.9338 53.5922L53.9115 28.7508Z"
                        fill="#CBCB14"></path>
                    <path
                        d="M86.9515 32.4588C86.7469 29.5951 84.7365 27.001 81.836 25.7395C84.4602 23.9287 85.8568 20.9022 85.3503 18.0588C84.6904 14.3405 80.8794 11.4463 76.4545 11.8176L62.0698 11.6904C62.0903 21.5244 62.1125 31.3584 62.1363 41.1924L79.6568 41.0551C84.1994 40.1751 87.2482 36.3297 86.9515 32.4588ZM68.3312 17.1636H75.7128C76.1546 17.138 76.597 17.2041 77.0118 17.3576C77.4266 17.5111 77.8047 17.7487 78.1222 18.0553C78.4397 18.3619 78.6896 18.7308 78.856 19.1386C79.0225 19.5464 79.1018 19.9841 79.089 20.424C79.0493 20.8476 78.9241 21.2588 78.7209 21.6331C78.5177 22.0074 78.2407 22.3372 77.9064 22.6026C77.5721 22.868 77.1875 23.0637 76.7754 23.1779C76.3633 23.2922 75.9323 23.3226 75.5082 23.2674H68.3465L68.3312 17.1636ZM76.9507 35.9584L68.3312 35.994V28.6185L76.8484 28.6541C77.3308 28.6474 77.8097 28.7353 78.2579 28.9126C78.7061 29.09 79.1147 29.3534 79.4605 29.6878C79.8064 30.0222 80.0825 30.4211 80.2733 30.8616C80.4641 31.3022 80.5658 31.7758 80.5725 32.2554C80.5792 32.735 80.4909 33.2112 80.3125 33.6569C80.1341 34.1025 79.8692 34.5089 79.5329 34.8527C79.1966 35.1966 78.7954 35.4712 78.3524 35.6609C77.9093 35.8506 77.4331 35.9517 76.9507 35.9584Z"
                        fill="white"></path>
                    <path
                        d="M106.452 40.5159C106.251 39.8778 106.102 39.2246 106.007 38.5627C106.037 35.6939 106.071 32.8251 106.109 29.9563C106.216 28.9937 106.104 28.0195 105.782 27.1057C105.46 26.1918 104.935 25.3616 104.247 24.6764C102.748 23.2776 100.83 23.2573 98.6199 23.2369C96.41 23.2166 94.3126 23.1911 92.4148 24.6408C91.0914 25.6942 90.156 27.1537 89.7548 28.7914L94.5531 29.8087C94.646 29.2139 94.9232 28.6627 95.346 28.2319C95.975 27.6613 96.8019 27.3551 97.653 27.3774C98.3488 27.3367 99.7709 27.2553 100.518 28.2675C100.711 28.5658 100.841 28.9 100.899 29.2498C100.958 29.5996 100.945 29.9576 100.86 30.3021C100.124 30.526 98.9626 30.8566 97.5149 31.1974C94.4456 31.9146 94.0057 31.7569 93.0338 32.2147C91.2127 33.0845 89.0795 35.409 89.3762 38.0795C89.6934 40.933 92.6399 42.8507 95.2744 43.1203C98.7631 43.4712 101.126 40.8669 101.377 40.577L101.965 42.4946L107.311 42.6014C106.965 41.932 106.678 41.2343 106.452 40.5159ZM99.1416 38.6492C98.1646 39.2087 96.3537 39.5495 95.3511 38.4406C95.0019 38.0539 94.784 37.5679 94.728 37.0512C94.672 36.5345 94.7808 36.0134 95.039 35.5616C95.4585 34.9614 96.0928 34.9716 98.3846 34.3968C99.4077 34.1323 100.272 33.8882 100.83 33.7101C101.331 35.7905 100.61 37.7895 99.1416 38.6492Z"
                        fill="white"></path>
                    <path
                        d="M115.087 45.3534H121.435V21.8993H129.589C129.62 20.1427 129.647 18.3845 129.671 16.6245H106.651V21.6602H115.153L115.087 45.3534Z"
                        fill="white"></path>
                    <path
                        d="M127.732 37.708L132.847 37.7741V50.3481C133.029 51.0586 133.43 51.6949 133.993 52.1681C134.556 52.6414 135.254 52.928 135.988 52.988C136.876 53.0128 137.742 52.7085 138.417 52.1341C139.092 51.5597 139.528 50.7564 139.641 49.8801V37.7385H144.951V56.7724H140.193V54.5038C139.871 54.87 137.636 57.3065 134.224 57.1844C131.732 57.0929 128.934 55.6585 127.983 53.2067C127.739 52.5722 127.623 51.8967 127.64 51.2179C127.664 46.7112 127.694 42.2079 127.732 37.708Z"
                        fill="white"></path>
                    <path
                        d="M171.183 37.7185L177.321 39.4531C176.847 42.0195 175.547 44.3634 173.618 46.1317C171.6 47.8986 169.056 48.9583 166.374 49.148C163.122 49.4552 159.864 48.6202 157.166 46.7879C151.437 42.8051 151.243 35.7806 151.227 34.6819C151.156 28.2932 155.125 20.7142 162.082 19.0407C165.786 18.1557 170.779 18.822 174.221 22.1537C175.67 23.5783 176.743 25.3357 177.347 27.2708L171.091 29.1019C170.18 26.284 167.817 24.3104 165.208 24.1629C161.898 23.9798 159.806 26.8231 159.458 27.2962C158.164 29.0561 158.123 30.8568 158.036 33.8578C157.959 36.3757 157.898 38.2374 159.059 40.1957C159.468 41.0245 160.052 41.7557 160.771 42.3393C161.491 42.9229 162.328 43.345 163.227 43.5769C164.126 43.8087 165.064 43.8448 165.978 43.6826C166.892 43.5205 167.76 43.1639 168.523 42.6372C169.297 42.0571 169.936 41.317 170.395 40.4679C170.854 39.6188 171.123 38.6808 171.183 37.7185Z"
                        fill="white"></path>
                    <path
                        d="M54.7905 45.694L49.675 46.4519C49.7017 47.3287 49.3938 48.1832 48.8131 48.8436C48.2324 49.504 47.4219 49.9216 46.5444 50.0123C45.6669 50.1031 44.7873 49.8605 44.0823 49.3331C43.3773 48.8057 42.899 48.0326 42.7436 47.1691L54.4017 43.0998C54.1306 41.293 53.3979 39.5854 52.2737 38.1405C51.1908 36.6191 49.6613 35.4679 47.8949 34.8444C46.0426 34.2446 44.043 34.2696 42.2065 34.9156C40.1201 35.6746 38.3858 37.1675 37.3314 39.112C36.3865 40.9504 36.0584 43.0413 36.3953 45.0785C36.6347 47.6378 37.815 50.0193 39.7101 51.7673C40.6912 52.6471 41.842 53.3195 43.0924 53.7436C44.3429 54.1677 45.667 54.3346 46.9843 54.2343C49.2503 54.0478 51.3537 52.9893 52.8466 51.2841C54.1436 49.7105 54.8329 47.7281 54.7905 45.694ZM43.4137 39.2137C45.1683 38.3846 47.5879 39.3409 48.3092 41.5128L41.7563 43.7357C41.4265 42.911 41.4131 41.9946 41.7187 41.1607C42.0243 40.3269 42.6276 39.6339 43.4137 39.2137Z"
                        fill="white"></path>
                    <path
                        d="M190.934 29.2695C191.125 28.6278 191.366 28.0019 191.655 27.3977L196.556 20.2765C197.005 19.7492 197.366 19.1532 197.625 18.5115C198.085 17.3509 198.202 16.0838 197.962 14.8593C197.502 12.8654 195.916 11.8074 194.1 10.551C192.284 9.29462 190.545 8.13489 188.156 8.28748C186.466 8.43656 184.875 9.14182 183.634 10.2916L187.061 13.7708C187.471 13.3303 188.006 13.025 188.596 12.8959C189.44 12.7702 190.299 12.9744 190.995 13.4656C191.594 13.8115 192.821 14.5338 192.872 15.7901C192.868 16.1486 192.788 16.5022 192.64 16.8287C192.491 17.1552 192.276 17.4476 192.008 17.6874C191.271 17.4636 190.12 17.0974 188.729 16.5786C185.793 15.485 185.501 15.1035 184.432 14.9509C182.432 14.6711 179.362 15.4188 178.114 17.8044C176.779 20.3477 178.15 23.5777 180.191 25.2562C182.892 27.479 186.33 26.6194 186.683 26.5228L186.094 28.4404L190.478 31.4923C190.566 30.7399 190.719 29.9962 190.934 29.2695ZM185.915 23.6743C184.79 23.598 183.092 22.8808 182.877 21.4057C182.81 20.8944 182.904 20.3749 183.147 19.9193C183.39 19.4636 183.769 19.0943 184.232 18.8624C184.918 18.5979 185.44 18.9591 187.665 19.7475C188.688 20.1035 189.522 20.363 190.079 20.5308C189.322 22.5095 187.603 23.7659 185.915 23.659V23.6743Z"
                        fill="white"></path>
                </g>
                <defs>
                    <clipPath id="clip0_60_62">
                        <rect
                            width="206"
                            height="62"
                            fill="white"
                            transform="translate(0.5 0.5)"></rect>
                    </clipPath>
                </defs>
            </svg>
